<!-- icon666.com - MILLIONS vector ICONS FREE --><svg id="svg44" clip-rule="evenodd" fill-rule="evenodd" stroke-linejoin="round" stroke-miterlimit="2" viewBox="0 0 64 64" xmlns="http://www.w3.org/2000/svg" xmlns:svg="http://www.w3.org/2000/svg"><g fill-rule="evenodd"><path id="path1017" d="m27.999005 54.480841c.551999 0 .999998-.447987.999998-1.000006 0-.551991-.447999-.999978-.999998-.999978h-18.9990019c-.551999 0-1.0000006.447987-1.0000006.999978 0 .552019.4480016 1.000006 1.0000006 1.000006" fill="#000000" style="fill: rgb(88, 57, 24);"></path><path id="path1019" d="m55.000004 54.480841c.551999 0 1-.447987 1-1.000006 0-.551991-.448001-.999978-1-.999978h-19c-.552002 0-1 .447987-1 .999978 0 .552019.447998 1.000006 1 1.000006" fill="#000000" style="fill: rgb(88, 57, 24);"></path><path id="path1021" d="m33.000003 53.480835c0 .552019-.447999 1.000006-.999998 1.000006-.552002 0-1.000001-.447987-1.000001-1.000006 0-.551991.447999-.999978 1.000001-.999978.551999 0 .999998.447987.999998.999978z" fill="#000000" style="fill: rgb(88, 57, 24);"></path><path id="path1023" d="m60.000004 53.480835c0 .552019-.447999 1.000006-1.000001 1.000006-.551999 0-1-.447987-1-1.000006 0-.551991.448001-.999978 1-.999978.552002 0 1.000001.447987 1.000001.999978z" fill="#000000" style="fill: rgb(88, 57, 24);"></path><path id="path1025" d="m6.0000042 53.480835c0 .552019-.4480015 1.000006-1.0000006 1.000006-.551999 0-1.0000005-.447987-1.0000005-1.000006 0-.551991.4480015-.999978 1.0000005-.999978.5519991 0 1.0000006.447987 1.0000006.999978z" fill="#000000" style="fill: rgb(88, 57, 24);"></path><path id="path1027" d="m21.000004 39.520858h-14.9999998c-.405 0-.7689996-.244063-.9240009-.617018-.1549984-.374003-.069987-.80399.216-1.090006 0 0 3.0830001-3.082989 4.8289997-4.828988.562-.561997.878001-1.324999.878001-2.120996 0-2.608015 0-7.839013 0-12.34301 0-2.386998.947999-4.676003 2.635999-6.364006 1.688-1.687975 3.977002-2.6359934 6.364-2.6359934h14c4.971001 0 9.000002 4.0289954 9.000002 8.9999994v.960009h1.000998c2.387001 0 4.676.947991 6.364 2.635994 1.688001 1.688003 2.636 3.977008 2.636 6.364006v12.34301c0 .795997.316 1.558999.879001 2.120995 1.745999 1.746992 4.827999 4.828989 4.827999 4.828989.286002.286016.371001.716003.216 1.090006-.154006.373011-.518998.616989-.923.616989 0 0-17.393 0-27.999999 0-4.970999 0-9-4.028995-9-8.999999zm16.000001 1.959987c.551999 0 .999998.448016.999998 1.000006 0 .551991-.447999 1.000006-.999998 1.000006-.552002 0-1.000001-.448015-1.000001-1.000006 0-.55199.447999-1.000006 1.000001-1.000006zm-3.000002-10.999984s0-.426018 0-1.000006c0-1.105001.895-2.000012 2.000001-2.000012h2.120001c1.037998 0 1.879999.842003 1.879999 1.879993v.001c0 .450992-.179008.883984-.499 1.202995-.581.582009-1.380999 1.382003-2.037002 2.037005-.936997.937984-1.463998 2.210003-1.463998 3.535993v2.343005c0 .55199.447999 1.000006 1.000001 1.000006.551999 0 .999998-.448016.999998-1.000006 0 0 0-1.243021 0-2.343005 0-.795997.316-1.558998.879001-2.120995.655001-.655994 1.455-1.456016 2.036998-2.037005.694001-.694998 1.084003-1.636015 1.084003-2.617993v-.001c0-2.142992-1.737-3.879977-3.88-3.879977-.689001 0-1.426 0-2.120001 0-2.208999 0-3.999999 1.790985-3.999999 3.999996v1.000006s0 .999978.999998.999978c1 0 1-.999978 1-.999978zm6.999001-11.000012v-.960009c0-3.866003-3.134001-6.999987-7.000001-6.999987-4.331999 0-9.667998 0-14 0-1.855998 0-3.637.737008-4.95 2.049987-1.311998 1.313008-2.049998 3.092995-2.049998 4.95v12.34301c0 1.325991-.527001 2.59801-1.464001 3.535002l-3.1210015 3.121993h12.5860015v-9.039996c0-4.971004 4.029001-9 9-9z" fill="#000000" style="fill: rgb(88, 57, 24);"></path></g></svg>