<?xml version="1.0" encoding="UTF-8"?> <svg xmlns="http://www.w3.org/2000/svg" width="23" height="23" viewBox="0 0 23 23" fill="none"> <path d="M9.58333 5.75V0H13.4167V5.75C13.4167 6.25833 13.2147 6.74584 12.8553 7.10529C12.4958 7.46473 12.0083 7.66667 11.5 7.66667C10.9917 7.66667 10.5042 7.46473 10.1447 7.10529C9.78527 6.74584 9.58333 6.25833 9.58333 5.75ZM15.3333 4.79167H23C22.9985 3.5213 22.4932 2.30341 21.5949 1.40513C20.6966 0.506845 19.4787 0.0015217 18.2083 0L15.3333 0V4.79167ZM7.66667 0H4.79167C3.5213 0.0015217 2.30341 0.506845 1.40513 1.40513C0.506845 2.30341 0.0015217 3.5213 0 4.79167H7.66667V0ZM23 6.70833V18.2083C22.9985 19.4787 22.4932 20.6966 21.5949 21.5949C20.6966 22.4932 19.4787 22.9985 18.2083 23H4.79167C3.5213 22.9985 2.30341 22.4932 1.40513 21.5949C0.506845 20.6966 0.0015217 19.4787 0 18.2083L0 6.70833H7.80275C8.01193 7.53018 8.48897 8.25891 9.15852 8.7794C9.82807 9.29988 10.6519 9.58244 11.5 9.58244C12.3481 9.58244 13.1719 9.29988 13.8415 8.7794C14.511 8.25891 14.9881 7.53018 15.1972 6.70833H23ZM19.1667 18.2083C19.1667 17.9542 19.0657 17.7104 18.886 17.5307C18.7063 17.351 18.4625 17.25 18.2083 17.25H15.3333C15.0792 17.25 14.8354 17.351 14.6557 17.5307C14.476 17.7104 14.375 17.9542 14.375 18.2083C14.375 18.4625 14.476 18.7063 14.6557 18.886C14.8354 19.0657 15.0792 19.1667 15.3333 19.1667H18.2083C18.4625 19.1667 18.7063 19.0657 18.886 18.886C19.0657 18.7063 19.1667 18.4625 19.1667 18.2083Z" fill="#2c2a28"></path> </svg> 