<?xml version="1.0" standalone="no"?>
<!DOCTYPE svg PUBLIC "-//W3C//DTD SVG 20010904//EN"
 "http://www.w3.org/TR/2001/REC-SVG-20010904/DTD/svg10.dtd">
<svg version="1.0" xmlns="http://www.w3.org/2000/svg"
 width="512.000000pt" height="512.000000pt" viewBox="0 0 512.000000 512.000000"
 preserveAspectRatio="xMidYMid meet">
<metadata>
Created by potrace 1.16, written by Peter Selinger 2001-2019
</metadata>
<g transform="translate(0.000000,512.000000) scale(0.100000,-0.100000)"
fill="#000000" stroke="none">
<path d="M2245 3485 c-81 -22 -229 -103 -302 -164 -128 -107 -224 -244 -274
-388 -10 -31 -19 -66 -18 -77 0 -12 13 16 29 62 54 157 183 325 327 428 71 52
205 116 283 137 30 9 44 15 30 15 -14 0 -47 -6 -75 -13z"/>
<path d="M2525 3460 c-131 -24 -267 -99 -356 -198 -97 -109 -165 -252 -176
-374 -3 -32 -12 -63 -19 -69 -9 -8 -14 -34 -14 -78 l0 -66 -52 -32 c-29 -17
-86 -59 -126 -92 l-72 -61 -11 27 c-21 57 -31 140 -26 228 4 70 2 82 -5 55
-15 -52 -4 -237 16 -287 l18 -41 -50 -64 c-73 -94 -132 -222 -132 -290 0 -21
-15 -45 -58 -91 -85 -92 -132 -180 -132 -249 0 -45 4 -59 24 -77 56 -53 273
-87 476 -76 337 18 837 96 1045 163 246 79 733 264 829 315 83 44 96 69 96
188 0 83 -3 98 -20 114 -17 15 -20 31 -20 100 0 103 -18 209 -75 434 -55 220
-62 228 -227 247 -75 9 -98 -6 -143 -94 -39 -77 -58 -101 -100 -129 -52 -35
-63 -35 -82 -2 -20 35 -130 118 -211 161 -60 31 -112 36 -136 13 -8 -8 -20
-15 -26 -15 -6 0 -42 -16 -80 -35 -93 -47 -238 -188 -247 -239 -4 -25 -23 -52
-74 -102 l-69 -68 -67 33 c-38 18 -101 51 -140 74 -70 39 -73 42 -73 77 0 59
27 149 72 240 57 115 170 230 278 284 76 37 194 65 275 65 109 0 256 -42 361
-104 l59 -35 -35 31 c-44 38 -139 85 -210 104 -69 19 -220 27 -285 15z m420
-405 c97 -55 155 -106 155 -136 0 -21 -1 -21 -18 -6 -10 9 -44 28 -76 43 -91
42 -157 20 -205 -67 l-23 -44 32 38 c39 46 78 67 122 66 l33 -1 -34 -12 c-33
-12 -119 -89 -148 -132 l-14 -21 -77 19 c-42 11 -79 22 -81 24 -5 5 48 76 137
181 49 58 84 92 97 93 11 0 56 -20 100 -45z m-197 3 c-25 -37 -180 -223 -189
-226 -5 -2 -9 -12 -9 -23 0 -17 -3 -18 -20 -9 -17 9 -20 8 -20 -8 0 -11 -7
-25 -15 -32 -9 -7 -13 -21 -9 -34 4 -17 -5 -32 -40 -64 -25 -23 -46 -46 -46
-50 -1 -4 -18 -26 -39 -49 -42 -47 -93 -63 -125 -40 -25 18 -16 55 21 91 48
46 205 189 286 260 42 38 77 72 77 77 0 19 -21 7 -77 -44 -80 -72 -93 -82 -93
-68 0 6 35 47 78 91 55 57 100 92 152 120 41 21 76 37 79 35 2 -3 -3 -15 -11
-27z m862 18 c0 -2 9 -48 20 -101 27 -134 29 -128 -27 -106 l-48 19 3 63 c4
78 19 129 38 129 8 0 14 -2 14 -4z m-563 -211 c23 -14 43 -31 43 -37 0 -20
-72 -101 -260 -293 -217 -222 -245 -255 -236 -289 3 -13 35 -49 70 -80 70 -61
166 -181 166 -207 0 -9 -9 -24 -19 -33 -21 -20 -146 -66 -176 -65 -12 0 -33
18 -52 44 -18 24 -47 55 -65 68 -59 45 -87 47 -314 20 -270 -31 -430 -35 -467
-10 -51 33 -28 62 102 127 45 23 81 44 78 46 -3 3 -53 -17 -111 -45 -138 -64
-161 -106 -84 -148 44 -24 235 -22 490 5 140 15 197 18 225 10 41 -11 137
-100 130 -121 -5 -15 -182 -47 -452 -83 -425 -55 -725 -29 -725 62 0 32 32 94
73 141 59 67 189 154 349 232 l158 77 22 -24 c51 -56 245 -124 390 -138 99 -9
77 9 -30 24 -134 18 -336 99 -349 139 -3 7 17 26 43 43 l48 30 25 -24 c46 -44
204 -106 271 -106 77 0 98 15 324 241 120 121 217 222 214 224 -2 3 -40 -30
-85 -73 -44 -42 -86 -82 -94 -88 -8 -6 -62 -62 -121 -123 -126 -132 -169 -156
-259 -148 -64 6 -226 76 -236 103 -5 14 33 53 53 54 6 0 66 -25 133 -56 68
-30 133 -54 144 -52 31 4 36 54 8 63 -25 8 -26 18 -5 36 12 10 20 10 35 1 10
-7 28 -18 39 -24 16 -11 23 -10 37 5 17 18 17 19 -5 37 -12 10 -28 21 -35 24
-8 3 -2 14 17 31 l28 26 22 -20 c23 -22 61 -28 70 -12 10 15 -4 38 -30 49 -30
14 -30 20 1 57 l24 30 26 -27 c30 -32 38 -34 55 -13 10 12 6 20 -19 46 -30 30
-31 32 -15 50 22 24 27 24 62 -6 34 -29 62 -24 62 9 0 16 -11 29 -34 41 l-34
19 51 59 c89 102 142 119 224 72z m122 -6 c3 -24 3 -24 -18 -5 -11 10 -18 23
-15 28 10 16 29 2 33 -23z m422 -9 l40 -21 -18 -30 c-39 -65 -106 -142 -151
-170 -38 -24 -56 -29 -109 -29 -67 0 -158 29 -237 75 -68 40 -70 46 -35 93
l30 42 52 -31 c133 -78 208 -94 275 -60 44 22 86 76 97 124 4 15 9 27 11 27 3
0 23 -9 45 -20z m39 -75 c-14 -36 -54 -98 -126 -192 -71 -92 -103 -150 -128
-233 -28 -88 -38 -110 -50 -110 -27 0 -268 -127 -364 -191 -61 -41 -108 -67
-110 -60 -10 29 -100 137 -158 189 -44 40 -64 64 -64 81 0 17 48 72 172 200
94 97 186 191 204 210 31 33 34 34 52 18 10 -9 58 -35 107 -58 74 -35 103 -43
166 -47 62 -4 82 -1 115 16 44 22 145 125 169 173 19 35 28 38 15 4z m-1604 6
c5 -5 60 -36 121 -68 l113 -59 -30 -29 c-17 -16 -35 -47 -41 -70 -9 -37 -21
-69 -39 -105 -11 -23 -149 -104 -305 -180 -77 -37 -177 -91 -223 -118 l-83
-50 7 36 c12 66 46 146 90 213 64 97 66 98 110 50 20 -23 41 -41 47 -41 6 0
-1 12 -15 28 -14 15 -33 39 -42 53 l-17 27 65 55 c36 30 96 75 135 98 l71 44
0 63 c0 61 11 77 36 53z m1671 -83 c20 -73 29 -268 14 -296 -6 -12 -33 -33
-59 -46 -55 -27 -238 -89 -251 -84 -11 4 14 101 41 156 11 24 50 83 87 131 36
49 82 116 101 149 20 35 39 57 44 52 5 -5 15 -33 23 -62z m-1052 41 c56 -21
63 -33 33 -52 -11 -8 -32 -4 -72 13 -62 25 -76 38 -55 51 20 13 32 11 94 -12z
m-79 -94 c55 -24 56 -26 41 -47 -18 -27 -25 -27 -99 5 l-57 24 22 21 c27 27
25 27 93 -3z m-47 -143 c2 -25 -28 -23 -76 4 -26 15 -50 29 -52 31 -2 1 1 9 7
16 10 12 21 9 66 -12 30 -14 55 -32 55 -39z m-116 -47 c42 -21 44 -26 20 -47
-16 -14 -25 -12 -96 23 -61 29 -74 39 -62 47 21 11 90 0 138 -23z m1347 -113
c0 -12 -29 -37 -66 -55 -17 -9 -123 -46 -235 -83 -112 -37 -207 -69 -211 -71
-5 -2 -8 -1 -8 2 0 11 161 81 284 125 66 23 142 52 170 65 58 26 66 28 66 17z
m0 -112 c0 -59 -62 -97 -320 -193 -193 -72 -612 -224 -640 -232 -33 -9 227
186 305 230 38 22 126 52 240 84 183 50 316 95 370 124 41 22 45 21 45 -13z"/>
<path d="M2936 2821 c-8 -12 2 -38 18 -44 20 -8 38 8 34 29 -3 20 -42 32 -52
15z"/>
<path d="M1995 2102 c-102 -43 -137 -61 -116 -62 18 0 200 80 207 91 7 12 11
13 -91 -29z"/>
</g>
</svg>