<?xml version="1.0" standalone="no"?>
<!DOCTYPE svg PUBLIC "-//W3C//DTD SVG 20010904//EN"
 "http://www.w3.org/TR/2001/REC-SVG-20010904/DTD/svg10.dtd">
<svg version="1.0" xmlns="http://www.w3.org/2000/svg"
 width="512.000000pt" height="512.000000pt" viewBox="0 0 512.000000 512.000000"
 preserveAspectRatio="xMidYMid meet">
<metadata>
Created by potrace 1.16, written by Peter Selinger 2001-2019
</metadata>
<g transform="translate(0.000000,512.000000) scale(0.100000,-0.100000)"
fill="#000000" stroke="none">
<path d="M3529 3920 c-54 -9 -122 -53 -169 -110 -23 -27 -55 -59 -72 -71 -29
-21 -30 -21 -68 -4 -51 23 -149 17 -187 -11 -15 -11 -42 -48 -61 -82 -19 -34
-40 -62 -48 -62 -19 0 -44 -40 -46 -76 -1 -16 -10 -41 -20 -56 -10 -15 -28
-49 -40 -75 -40 -91 -109 -184 -154 -205 l-41 -21 -54 43 c-83 66 -210 122
-289 128 -80 5 -103 -10 -156 -101 -19 -34 -51 -76 -70 -94 -19 -18 -34 -42
-34 -53 0 -12 -9 -33 -20 -47 -11 -14 -20 -36 -20 -48 0 -12 -20 -49 -45 -81
-25 -31 -45 -65 -45 -74 0 -9 -10 -25 -21 -36 -12 -10 -47 -53 -77 -94 -31
-41 -77 -99 -104 -128 -26 -30 -48 -60 -48 -67 0 -19 -106 -150 -171 -211 -30
-27 -108 -90 -174 -138 -66 -49 -142 -109 -169 -135 -48 -46 -96 -128 -96
-165 0 -11 -18 -50 -41 -88 -67 -110 -69 -164 -13 -282 81 -171 207 -220 503
-196 259 20 560 82 811 166 176 59 264 102 268 132 2 15 -2 22 -12 22 -9 0
-109 -31 -224 -69 -304 -102 -634 -169 -912 -186 -203 -13 -330 40 -364 152
l-7 22 44 -19 c94 -42 173 -54 357 -54 195 0 331 17 515 64 142 35 197 62 410
196 205 129 311 206 475 348 164 141 286 233 390 295 47 28 82 51 78 51 -23 0
-231 -80 -323 -125 -171 -82 -414 -252 -590 -411 l-40 -36 50 34 c28 19 95 67
150 105 126 89 233 155 360 223 117 62 114 58 -105 -130 -433 -370 -768 -511
-1280 -536 -326 -16 -539 59 -491 173 6 15 18 37 26 47 13 18 16 18 32 4 58
-51 243 -66 403 -33 248 51 701 230 1043 412 201 107 867 530 1164 740 264
186 328 302 249 454 -14 28 -26 62 -26 76 0 14 -9 40 -19 57 -11 17 -33 69
-50 115 -47 128 -140 284 -190 321 -36 25 -96 38 -142 30z m92 -93 c30 -20 34
-28 37 -75 3 -57 -18 -116 -49 -132 -17 -10 -17 -8 1 32 11 25 20 65 20 95 0
42 -4 55 -22 67 -53 37 -108 15 -215 -86 -41 -39 -77 -67 -81 -64 -8 9 104
121 157 157 55 36 104 38 152 6z m174 -266 c50 -150 49 -152 -39 -253 -144
-164 -348 -335 -538 -449 -209 -126 -569 -331 -573 -327 -4 4 26 85 80 215
l13 31 59 -24 c32 -13 73 -24 91 -24 93 0 165 99 131 183 -7 17 -39 60 -72 94
-51 54 -57 64 -47 82 13 25 39 26 106 6 119 -36 126 -3 8 37 -76 26 -88 38
-64 62 6 6 41 2 91 -9 79 -18 82 -18 95 0 21 28 1 43 -72 50 -35 4 -67 12 -70
17 -3 5 2 21 11 35 17 25 20 25 86 20 59 -5 70 -3 78 12 15 27 -2 43 -53 48
-25 3 -46 9 -46 14 0 4 10 19 23 34 16 18 35 27 72 31 89 10 97 13 93 37 -3
21 -7 22 -73 19 l-70 -3 32 30 c56 53 163 67 163 23 0 -54 -132 -366 -229
-542 -55 -98 -36 -106 28 -11 85 124 195 369 246 548 3 9 17 8 57 -3 143 -38
256 7 304 121 15 37 17 38 30 21 7 -10 29 -67 49 -125z m-594 113 c38 -19 34
-32 -15 -49 -20 -7 -45 -20 -54 -28 -9 -8 -42 -17 -73 -19 l-57 -4 10 28 c6
15 23 41 38 58 23 25 36 30 75 30 25 0 60 -7 76 -16z m-118 -158 c-4 -19 -15
-25 -60 -36 -37 -8 -58 -9 -65 -2 -12 12 16 29 77 48 54 17 53 17 48 -10z
m-55 -106 c-15 -24 -24 -25 -31 -6 -6 14 6 24 31 25 10 1 10 -3 0 -19z m-78
-62 c0 -15 -17 -8 -39 16 -13 14 -20 30 -16 36 5 8 15 3 31 -16 13 -16 23 -32
24 -36z m-46 -53 c23 -35 20 -42 -21 -48 -49 -8 -57 1 -32 41 25 38 32 39 53
7z m1004 -10 c33 -72 11 -101 -228 -295 -80 -65 -174 -144 -210 -175 -137
-121 -757 -513 -1020 -645 l-78 -39 -69 29 c-77 32 -464 148 -586 175 -42 9
-79 21 -82 25 -3 4 3 18 13 30 17 21 20 21 62 9 25 -7 95 -13 155 -13 100 -1
115 1 165 26 l55 27 59 -29 c66 -34 74 -35 111 -18 27 12 143 165 265 348 34
52 66 99 70 103 4 5 31 -3 59 -18 42 -21 51 -30 46 -45 -3 -11 -38 -86 -76
-167 -73 -151 -86 -195 -59 -200 8 -2 87 39 175 90 488 285 590 346 690 413
154 103 265 193 370 300 50 50 93 92 96 93 3 1 11 -10 17 -24z m-1567 -44
c108 -37 199 -93 199 -122 0 -39 -26 -43 -118 -20 -60 14 -120 21 -186 21
l-97 0 27 50 c52 96 75 106 175 71z m503 -46 c19 -14 18 -16 -8 -55 -28 -43
-41 -48 -70 -27 -18 13 -17 16 9 55 30 45 40 49 69 27z m1005 -131 c-50 -52
-189 -159 -251 -194 -84 -47 -43 -11 252 220 51 40 51 27 -1 -26z m-1229 -4
c0 -5 -7 -10 -16 -10 -8 0 -12 5 -9 10 3 6 10 10 16 10 5 0 9 -4 9 -10z m-225
-12 c53 -10 102 -33 339 -157 43 -22 92 -41 109 -41 38 0 67 25 67 58 0 25 0
25 20 7 29 -26 23 -72 -13 -99 -25 -18 -32 -19 -82 -8 -31 6 -98 32 -149 57
-51 25 -97 45 -102 45 -6 0 -81 -99 -168 -220 -86 -121 -168 -227 -181 -236
-22 -14 -28 -13 -102 25 -43 22 -118 51 -167 65 -49 14 -91 28 -93 30 -2 2 14
7 37 11 51 9 128 -1 204 -27 32 -10 68 -18 80 -16 30 4 33 43 4 62 -30 20
-183 46 -269 46 -38 0 -69 3 -69 8 0 4 14 23 31 41 30 33 30 33 107 29 63 -4
95 -12 174 -47 105 -46 131 -47 126 -5 -3 23 -15 32 -101 68 l-98 41 61 3 c42
2 86 -4 137 -19 68 -20 75 -21 90 -6 21 20 10 45 -24 58 -56 21 -227 40 -296
34 -66 -7 -68 -6 -58 12 5 11 16 25 24 31 28 24 298 14 362 -12 45 -19 80 -14
95 13 19 36 -16 57 -180 107 -85 25 -157 48 -159 50 -10 9 191 3 244 -8z
m-285 -43 l25 -14 -37 -1 c-29 0 -36 3 -32 15 7 18 12 18 44 0z m-227 -506
c59 -11 118 -24 130 -28 70 -27 -169 -47 -261 -22 l-42 12 15 29 c18 36 20 36
158 9z m-118 -225 c70 -14 221 -55 498 -137 l79 -23 -184 -82 c-369 -164 -586
-231 -773 -239 -136 -6 -186 6 -218 48 -39 53 -1 107 162 229 l83 63 92 -5
c50 -3 142 -18 204 -33 63 -15 124 -24 138 -21 13 4 39 20 57 37 l32 30 -39
-16 c-53 -21 -85 -19 -180 10 -70 21 -190 44 -236 45 -17 0 52 74 95 101 32
21 43 21 190 -7z"/>
<path d="M3681 3544 c-36 -41 -121 -75 -207 -81 -99 -8 -83 -29 20 -26 75 1
150 25 188 60 12 11 18 12 18 4 0 -7 -53 -67 -118 -134 -64 -67 -142 -151
-173 -187 -69 -81 -189 -236 -189 -244 0 -19 62 41 152 147 57 67 150 171 209
232 133 140 149 160 149 200 0 48 -21 61 -49 29z"/>
<path d="M3775 2641 c-122 -33 -513 -186 -502 -197 2 -2 83 23 179 56 221 75
323 100 415 100 116 0 190 -40 163 -89 -46 -88 -299 -215 -695 -351 -115 -39
-236 -86 -268 -103 -64 -34 -187 -142 -286 -254 -89 -99 -112 -143 -73 -143
38 1 102 43 197 130 119 108 188 145 465 246 254 92 394 152 534 230 101 56
123 65 152 59 38 -7 64 -29 64 -54 0 -57 -113 -132 -440 -294 -134 -67 -272
-139 -305 -162 -52 -34 -345 -292 -345 -302 0 -5 -2 -7 215 137 139 91 269
165 480 273 295 150 389 208 438 274 56 75 20 153 -77 166 -47 7 -55 4 -145
-48 -175 -99 -288 -146 -686 -286 -199 -70 -252 -101 -393 -234 -45 -43 -85
-75 -89 -72 -9 10 50 78 142 166 105 99 154 123 445 221 253 85 408 150 544
227 196 111 244 186 168 266 -53 56 -171 71 -297 38z"/>
<path d="M1852 1053 c-13 -25 -5 -42 27 -56 l26 -11 -32 -4 c-35 -4 -43 -16
-17 -26 25 -10 42 -7 58 9 19 20 10 44 -21 56 -29 11 -20 33 9 23 15 -4 19 -2
16 7 -7 22 -55 23 -66 2z"/>
<path d="M1950 1010 c0 -33 4 -60 10 -60 6 0 10 11 10 25 0 20 5 25 25 25 20
0 25 -5 25 -25 0 -14 5 -25 10 -25 6 0 10 13 10 29 0 16 3 43 6 60 5 24 3 31
-10 31 -9 0 -16 -8 -16 -20 0 -15 -7 -20 -25 -20 -18 0 -25 5 -25 20 0 11 -4
20 -10 20 -6 0 -10 -27 -10 -60z"/>
<path d="M2080 1010 l0 -60 40 0 c29 0 40 4 40 15 0 9 -9 15 -25 15 -14 0 -25
5 -25 10 0 6 9 10 20 10 11 0 20 5 20 10 0 6 -9 10 -20 10 -27 0 -26 18 2 22
41 6 32 28 -11 28 l-41 0 0 -60z"/>
<path d="M2230 1055 c-17 -21 -2 -49 29 -53 11 -2 21 -10 21 -18 0 -16 -9 -18
-30 -5 -20 13 -34 2 -19 -15 27 -33 95 -1 72 34 -5 10 -20 18 -32 20 -29 5
-21 28 8 24 15 -1 21 3 19 10 -7 20 -53 21 -68 3z"/>
<path d="M2330 1009 c0 -78 23 -77 30 1 6 59 13 57 45 -17 10 -24 22 -43 26
-43 6 0 49 100 49 115 0 3 -6 5 -13 5 -8 0 -18 -17 -23 -37 l-10 -38 -19 38
c-16 32 -24 37 -52 37 l-33 0 0 -61z"/>
<path d="M2494 1056 c-3 -7 -4 -33 -2 -57 3 -43 4 -44 41 -47 28 -2 37 0 37
12 0 10 -9 16 -25 16 -14 0 -25 5 -25 10 0 6 9 10 20 10 11 0 20 5 20 10 0 6
-9 10 -20 10 -28 0 -25 18 5 26 37 9 30 24 -10 24 -21 0 -38 -6 -41 -14z"/>
<path d="M2590 1009 c0 -37 4 -58 10 -54 6 3 10 16 10 28 1 21 2 20 25 -8 27
-33 40 -30 27 6 -6 15 -5 30 1 40 17 28 1 49 -38 49 l-35 0 0 -61z m50 21 c0
-5 -7 -10 -15 -10 -8 0 -15 5 -15 10 0 6 7 10 15 10 8 0 15 -4 15 -10z"/>
<path d="M2696 1054 c-12 -32 -6 -92 10 -98 29 -11 64 -7 64 9 0 9 -9 15 -25
15 -14 0 -25 5 -25 10 0 6 9 10 20 10 11 0 20 5 20 10 0 6 -9 10 -20 10 -11 0
-20 7 -20 15 0 9 9 15 25 15 14 0 25 5 25 10 0 17 -67 12 -74 -6z"/>
<path d="M2824 1044 c4 -15 10 -39 13 -55 6 -30 33 -41 33 -14 0 22 18 18 25
-6 10 -32 27 -17 46 42 10 29 19 55 19 57 0 1 -7 2 -15 2 -8 0 -17 -12 -21
-27 -3 -16 -7 -32 -8 -38 -2 -5 -8 7 -15 28 -15 43 -33 44 -41 1 l-6 -29 -7
33 c-3 17 -12 32 -18 32 -7 0 -9 -9 -5 -26z"/>
<path d="M2974 1045 c-36 -56 19 -116 77 -83 16 10 29 13 29 8 0 -6 9 -10 19
-10 14 0 18 5 14 20 -4 15 -11 19 -24 15 -17 -6 -19 -1 -19 37 0 28 -3 38 -9
29 -6 -9 -11 -10 -15 -2 -13 20 -55 12 -72 -14z m64 -7 c18 -18 15 -46 -6 -57
-33 -18 -58 29 -30 57 7 7 15 12 18 12 3 0 11 -5 18 -12z"/>
<path d="M3124 1054 c3 -9 6 -35 6 -58 0 -31 4 -43 15 -43 8 0 15 9 15 21 1
20 1 20 21 -3 23 -28 37 -21 21 13 -8 18 -7 27 4 38 26 26 7 48 -43 48 -37 0
-44 -3 -39 -16z m64 -16 c-6 -18 -28 -21 -28 -4 0 9 7 16 16 16 9 0 14 -5 12
-12z"/>
<path d="M3240 1010 c0 -33 4 -60 10 -60 6 0 10 11 10 25 0 32 9 32 36 -2 16
-20 26 -25 33 -17 8 7 6 16 -9 29 -24 22 -25 38 -5 55 8 7 15 16 15 21 0 16
-23 10 -47 -13 l-23 -21 0 21 c0 12 -4 22 -10 22 -6 0 -10 -27 -10 -60z"/>
</g>
</svg>