<svg width="37" height="38" viewBox="0 0 37 38" fill="none" xmlns="http://www.w3.org/2000/svg">
<path d="M26.9792 19C29.228 19 31.3847 19.9175 32.9748 21.5506C34.565 23.1837 35.4583 25.3987 35.4583 27.7083C35.4583 30.0179 34.565 32.2329 32.9748 33.866C31.3847 35.4992 29.228 36.4167 26.9792 36.4167C24.7303 36.4167 22.5736 35.4992 20.9835 33.866C19.3933 32.2329 18.5 30.0179 18.5 27.7083C18.5 25.3987 19.3933 23.1837 20.9835 21.5506C22.5736 19.9175 24.7303 19 26.9792 19ZM26.9792 22.1667L26.8404 22.1793C26.6864 22.2082 26.5446 22.2846 26.4339 22.3983C26.3232 22.512 26.2488 22.6576 26.2207 22.8158L26.2083 22.9583V26.9167H22.3511L22.2123 26.9309C22.0583 26.9598 21.9165 27.0362 21.8058 27.1499C21.6951 27.2636 21.6207 27.4092 21.5926 27.5674L21.5802 27.7099L21.5926 27.8524C21.6207 28.0106 21.6951 28.1562 21.8058 28.2699C21.9165 28.3836 22.0583 28.46 22.2123 28.4889L22.3511 28.5016H26.2083V32.4647L26.2207 32.6072C26.2488 32.7653 26.3232 32.911 26.4339 33.0247C26.5446 33.1384 26.6864 33.2148 26.8404 33.2437L26.9792 33.2563L27.1179 33.2437C27.2719 33.2148 27.4137 33.1384 27.5244 33.0247C27.6352 32.911 27.7095 32.7653 27.7377 32.6072L27.75 32.4647V28.5H31.6103L31.7491 28.4889C31.9031 28.46 32.0449 28.3836 32.1556 28.2699C32.2663 28.1562 32.3407 28.0106 32.3688 27.8524L32.3812 27.7099L32.3688 27.5674C32.3406 27.409 32.266 27.2632 32.155 27.1495C32.044 27.0358 31.9018 26.9595 31.7475 26.9309L31.6088 26.9182H27.75V22.9599L27.7377 22.8174C27.7098 22.6589 27.6356 22.513 27.5248 22.3989C27.4141 22.2849 27.2721 22.2083 27.1179 22.1793L26.9792 22.1667ZM21.4677 3.96466C22.0721 3.96461 22.666 4.12675 23.1906 4.43502C23.7152 4.74329 24.1523 5.18699 24.4585 5.72216L25.7135 7.91824H28.9062C30.2348 7.91824 31.509 8.46017 32.4486 9.42486C33.3882 10.3895 33.9163 11.698 33.9167 13.0625V20.2825C33.2292 19.6041 32.4511 19.0299 31.6057 18.5772L31.6042 13.0625C31.6042 12.3276 31.3199 11.6228 30.814 11.1032C30.308 10.5836 29.6218 10.2917 28.9062 10.2917H25.0521C24.8505 10.2918 24.6524 10.2378 24.4775 10.135C24.3025 10.0322 24.1567 9.88429 24.0546 9.70582L22.4636 6.92391C22.3616 6.74567 22.2161 6.59787 22.0414 6.49512C21.8668 6.39238 21.669 6.33824 21.4677 6.33807H15.6047C15.436 6.33821 15.2694 6.37627 15.1165 6.44958C14.9637 6.52288 14.8283 6.62966 14.7198 6.76241L14.6196 6.90491L12.9346 9.72482C12.8313 9.89792 12.6864 10.0409 12.514 10.1401C12.3415 10.2394 12.1471 10.2915 11.9495 10.2917H8.09529C7.74086 10.2914 7.38987 10.363 7.06237 10.5021C6.73486 10.6413 6.43726 10.8453 6.18657 11.1027C5.93589 11.36 5.73702 11.6655 5.60134 12.0018C5.46566 12.338 5.39583 12.6985 5.39583 13.0625V28.1042C5.39583 29.6337 6.60449 30.875 8.09374 30.875H17.4409C17.7076 31.7189 18.076 32.5169 18.5339 33.25H8.09374C6.7649 33.25 5.49048 32.7078 4.55085 31.7428C3.61121 30.7778 3.08333 29.4689 3.08333 28.1042V13.0625C3.08333 11.6977 3.61121 10.3889 4.55085 9.42384C5.49048 8.45881 6.7649 7.91666 8.09374 7.91666H11.3004L12.6494 5.66199C12.9595 5.143 13.3941 4.71434 13.9114 4.41691C14.4288 4.11949 15.0118 3.96323 15.6047 3.96307L21.4677 3.96466ZM18.5 12.6667C19.9668 12.6661 21.396 13.143 22.5824 14.0288C23.7687 14.9147 24.6512 16.164 25.103 17.5972C24.3301 17.7492 23.5937 17.9861 22.8937 18.3081C22.5521 17.2329 21.848 16.3183 20.9082 15.7288C19.9684 15.1394 18.8546 14.9138 17.7672 15.0927C16.6799 15.2715 15.6904 15.8431 14.9769 16.7045C14.2633 17.566 13.8726 18.6607 13.875 19.7917C13.875 22.0558 15.4167 23.9479 17.4794 24.4261C17.2334 25.1788 17.073 25.9582 17.0015 26.7488C15.3363 26.3655 13.8671 25.3654 12.8746 23.9397C11.882 22.514 11.4358 20.7627 11.6213 19.0205C11.8067 17.2782 12.6107 15.6673 13.8796 14.4954C15.1486 13.3236 16.7935 12.6731 18.5 12.6682" fill="#D78707"/>
</svg>
