<?xml version="1.0" encoding="UTF-8"?> <svg xmlns="http://www.w3.org/2000/svg" width="24" height="22" viewBox="0 0 24 22" fill="none"> <path d="M15 17H0V3C0 2.20435 0.31607 1.44129 0.87868 0.87868C1.44129 0.31607 2.20435 0 3 0H12C12.7956 0 13.5587 0.31607 14.1213 0.87868C14.6839 1.44129 15 2.20435 15 3V17ZM17 17H24V12H17V17ZM19 4H17V10H24V9C23.9984 7.67441 23.4711 6.40356 22.5338 5.46622C21.5964 4.52888 20.3256 4.00159 19 4ZM3.058 19C3.02137 19.1642 3.00193 19.3318 3 19.5C3 20.163 3.26339 20.7989 3.73223 21.2678C4.20107 21.7366 4.83696 22 5.5 22C6.16304 22 6.79893 21.7366 7.26777 21.2678C7.73661 20.7989 8 20.163 8 19.5C7.99807 19.3318 7.97863 19.1642 7.942 19H3.058ZM17.058 19C17.0214 19.1642 17.0019 19.3318 17 19.5C17 20.163 17.2634 20.7989 17.7322 21.2678C18.2011 21.7366 18.837 22 19.5 22C20.163 22 20.7989 21.7366 21.2678 21.2678C21.7366 20.7989 22 20.163 22 19.5C21.9981 19.3318 21.9786 19.1642 21.942 19H17.058Z" fill="#FE5858"></path> </svg> 