<svg className="call" enableBackground="new 0 0 512 512" viewBox="0 0 512 512" xmlns="http://www.w3.org/2000/svg"><path clipRule="evenodd" d="m391.6 482.523c0 11.809-9.668 21.477-21.477 21.477h-228.246c-11.812 0-21.477-9.665-21.477-21.477v-72.024c66.826 0 121-54.173 121-121s-54.173-121-121-121v-139.022c0-11.812 9.665-21.477 21.477-21.477h20.913l9.732 29.951c3.503 10.781 13.391 17.965 24.727 17.965h117.502c11.336 0 21.224-7.184 24.727-17.965l9.732-29.951h20.913c11.813 0 21.477 9.667 21.477 21.477v32.023c-66.821 0-121 54.179-121 121s54.179 121 121 121zm-135.6-58.846c-10.935 0-19.8 8.865-19.8 19.8s8.865 19.8 19.8 19.8 19.8-8.865 19.8-19.8-8.865-19.8-19.8-19.8zm-76.387-415.677 8.125 25.006c1.361 4.19 5.104 6.91 9.51 6.91h117.502c4.406 0 8.149-2.719 9.51-6.91l8.126-25.006zm-59.213 176.499c-57.99 0-105 47.01-105 105s47.01 105 105 105 105-47.01 105-105-47.01-105-105-105zm-10.909 115.908c-5.44-5.43-10.261-11.44-14.359-17.92-1.496-2.367-1.481-5.21.041-7.56l5.848-9.029c1.248-1.927 1.486-4.126.679-6.276l-10.06-26.811c-1.575-4.199-6.561-5.86-10.341-3.445-4.678 2.989-9.357 5.978-14.034 8.967-6.405 4.092-9.378 11.449-7.614 18.842 5.43 22.755 17.274 43.233 33.644 59.429 16.195 16.37 36.674 28.214 59.429 33.644 7.393 1.764 14.75-1.209 18.842-7.614 2.989-4.678 5.978-9.357 8.967-14.034 2.415-3.779.753-8.765-3.446-10.341l-26.811-10.06c-2.149-.807-4.348-.568-6.276.679l-9.029 5.848c-2.35 1.522-5.193 1.538-7.56.041-6.48-4.099-12.49-8.92-17.92-14.36zm217.355-85.806 40.925-38.367-40.674-27.061c-.264 1.034-.405 2.115-.405 3.229v60.197c.001.68.053 1.349.154 2.002zm117.919 11.014-42.987-40.3-2.148 1.429c-2.468 1.642-5.242 2.463-8.031 2.463s-5.563-.821-8.03-2.463l-2.148-1.429-42.987 40.3c.442.046.89.069 1.344.069h103.643c.454 0 .903-.023 1.344-.069zm11.338-76.442c.264 1.034.405 2.115.405 3.229v60.197c0 .681-.053 1.349-.154 2.003l-40.925-38.367zm-115-9.858 50.497 33.596 50.497-33.596zm50.497-61.815c-57.99 0-105 47.01-105 105s47.01 105 105 105 105-47.01 105-105-47.01-105-105-105z" fillRule="evenodd"></path></svg>