<svg className="call" enableBackground="new 0 0 512 512" viewBox="0 0 512 512" xmlns="http://www.w3.org/2000/svg"><path d="m256 415.677c-15.329 0-27.8 12.472-27.8 27.801s12.471 27.8 27.8 27.8 27.8-12.471 27.8-27.8-12.471-27.801-27.8-27.801zm0 39.6c-6.506 0-11.8-5.293-11.8-11.8s5.293-11.801 11.8-11.801 11.8 5.294 11.8 11.801-5.293 11.8-11.8 11.8zm248.6-272.777c0-59.619-46.411-108.595-105-112.713v-40.309c0-16.254-13.224-29.478-29.477-29.478h-228.246c-16.253 0-29.477 13.224-29.477 29.478v147.308c-58.589 4.118-105 53.094-105 112.712 0 59.619 46.411 108.595 105 112.713v80.311c0 16.254 13.224 29.478 29.478 29.478h228.245c16.254 0 29.478-13.224 29.478-29.478v-187.31c58.588-4.118 104.999-53.094 104.999-112.712zm-183.225-166.5-5.172 15.916h-120.407l-5.172-15.916zm-297.975 273.498c0-53.485 43.514-96.999 97-96.999s97 43.514 97 96.999c0 53.486-43.514 97-97 97s-97-43.514-97-97zm346.723 206.502h-228.246c-7.432 0-13.478-6.046-13.478-13.478v-80.311c58.589-4.118 105-53.094 105-112.713 0-59.618-46.411-108.594-105-112.712v-147.308c0-7.432 6.046-13.478 13.478-13.478h31.924l8.574 26.388c1.071 3.297 4.143 5.528 7.608 5.528h132.033c3.466 0 6.538-2.231 7.608-5.528l8.574-26.388h31.924c7.432 0 13.478 6.046 13.478 13.478v40.309c-58.589 4.118-105 53.094-105 112.713 0 59.618 46.411 108.594 105 112.712v187.31c0 7.432-6.046 13.478-13.477 13.478zm21.477-216.501c-53.486 0-97-43.514-97-96.999 0-53.486 43.514-97 97-97s97 43.514 97 97c0 53.485-43.514 96.999-97 96.999zm51.822-148.185h-103.644c-11.627 0-21.086 9.46-21.086 21.087v60.197c0 11.627 9.459 21.086 21.086 21.086h103.644c11.627 0 21.087-9.459 21.087-21.086v-60.197c0-11.627-9.46-21.087-21.087-21.087zm-51.822 41.578-38.442-25.577h76.885zm-23.859 3.343-33.05 30.984v-52.973zm13.683 9.103 5.744 3.822c1.342.894 2.887 1.34 4.432 1.34s3.089-.446 4.432-1.34l5.744-3.822 34.503 32.346h-89.357zm34.035-9.103 33.05-21.989v52.974zm-258.588 182.359c8.542 0 16.504-4.279 21.304-11.792l8.944-13.998c2.454-3.841 3.038-8.513 1.603-12.818s-4.705-7.692-8.971-9.293l-26.74-10.032c-4.496-1.688-9.387-1.158-13.42 1.452l-8.463 5.481c-5.735-3.682-11.097-8.009-15.945-12.866-.003-.004-.007-.007-.011-.011-4.859-4.85-9.186-10.212-12.866-15.945l5.484-8.467c2.608-4.031 3.137-8.921 1.451-13.416l-10.033-26.741c-1.601-4.267-4.988-7.536-9.293-8.971-4.306-1.434-8.977-.851-12.819 1.604l-13.998 8.943c-9.279 5.93-13.623 16.681-11.068 27.392 5.676 23.785 18.025 45.605 35.651 63.044 17.499 17.687 39.32 30.035 63.104 35.711 2.038.485 4.078.723 6.086.723zm-89.28-103.193c-.966-4.048.613-7.954 4.12-10.195l12.951-8.274 9.419 25.104-5.558 8.581c-3.216 4.967-3.25 11.16-.087 16.163 4.388 6.938 9.578 13.417 15.427 19.256 5.837 5.847 12.315 11.037 19.256 15.427 5.001 3.162 11.195 3.129 16.164-.088l8.58-5.558 25.104 9.419-8.275 12.951c-2.24 3.507-6.146 5.085-10.194 4.12-20.876-4.981-40.048-15.841-55.505-31.462-15.561-15.395-26.42-34.568-31.402-55.444z"></path></svg>