<!-- icon666.com - MILLIONS vector ICONS FREE --><svg id="Layer_2" viewBox="0 0 32 32" xmlns="http://www.w3.org/2000/svg"><path d="m14 12c0-1.103.897-2 2-2s2 .897 2 2-.897 2-2 2-2-.897-2-2zm14-8v24c0 1.654-1.346 3-3 3h-18c-1.654 0-3-1.346-3-3v-2h-1c-.553 0-1-.448-1-1s.447-1 1-1h1v-7h-1c-.553 0-1-.448-1-1s.447-1 1-1h1v-7h-1c-.553 0-1-.448-1-1s.447-1 1-1h1v-2c0-1.654 1.346-3 3-3h18c1.654 0 3 1.346 3 3zm-16 8c0 2.206 1.794 4 4 4s4-1.794 4-4-1.794-4-4-4-4 1.794-4 4zm10 11c0-3.309-2.691-6-6-6s-6 2.691-6 6c0 .552.447 1 1 1s1-.448 1-1c0-2.206 1.794-4 4-4s4 1.794 4 4c0 .552.447 1 1 1s1-.448 1-1z"></path></svg>