<?xml version="1.0" encoding="UTF-8"?> <svg xmlns="http://www.w3.org/2000/svg" width="22" height="21" viewBox="0 0 22 21" fill="none"> <path d="M11.9396 2.625V0.875C11.9396 0.642936 12.0362 0.420376 12.2081 0.256282C12.38 0.0921872 12.6131 0 12.8562 0C13.0994 0 13.3325 0.0921872 13.5044 0.256282C13.6763 0.420376 13.7729 0.642936 13.7729 0.875V2.625C13.7729 2.85706 13.6763 3.07962 13.5044 3.24372C13.3325 3.40781 13.0994 3.5 12.8562 3.5C12.6131 3.5 12.38 3.40781 12.2081 3.24372C12.0362 3.07962 11.9396 2.85706 11.9396 2.625ZM9.18958 3.5C9.4327 3.5 9.66586 3.40781 9.83776 3.24372C10.0097 3.07962 10.1062 2.85706 10.1062 2.625V0.875C10.1062 0.642936 10.0097 0.420376 9.83776 0.256282C9.66586 0.0921872 9.4327 0 9.18958 0C8.94647 0 8.71331 0.0921872 8.5414 0.256282C8.36949 0.420376 8.27292 0.642936 8.27292 0.875V2.625C8.27292 2.85706 8.36949 3.07962 8.5414 3.24372C8.71331 3.40781 8.94647 3.5 9.18958 3.5ZM5.52292 3.5C5.76603 3.5 5.99919 3.40781 6.1711 3.24372C6.34301 3.07962 6.43958 2.85706 6.43958 2.625V0.875C6.43958 0.642936 6.34301 0.420376 6.1711 0.256282C5.99919 0.0921872 5.76603 0 5.52292 0C5.2798 0 5.04664 0.0921872 4.87474 0.256282C4.70283 0.420376 4.60625 0.642936 4.60625 0.875V2.625C4.60625 2.85706 4.70283 3.07962 4.87474 3.24372C5.04664 3.40781 5.2798 3.5 5.52292 3.5ZM22 11.5001C21.9699 12.4078 21.5699 13.2684 20.885 13.8987C20.2002 14.529 19.2847 14.8793 18.3333 14.875H16.0646C15.4808 15.6917 14.6951 16.3585 13.7771 16.8164C12.859 17.2743 11.8369 17.509 10.8011 17.5H7.53133C6.47808 17.51 5.43897 17.268 4.50895 16.796C3.57892 16.324 2.78762 15.6371 2.20733 14.798C0.909333 12.8214 -2.24858 5.57463 2.75 5.25H15.5833C16.0205 5.26133 16.449 5.36882 16.8355 5.56409C17.222 5.75937 17.5561 6.03716 17.8118 6.37585C18.0674 6.71454 18.2377 7.10497 18.3094 7.51676C18.3811 7.92856 18.3523 8.35059 18.2252 8.75C20.4902 8.75 22 9.80437 22 11.5001ZM20.1667 11.5001C20.2473 10.689 19.0208 10.4291 17.9135 10.5C17.7086 11.3992 17.4158 12.278 17.039 13.125H18.3333C18.7987 13.1295 19.2481 12.9635 19.5892 12.6613C19.9302 12.359 20.1369 11.9434 20.1667 11.5001ZM17.4167 19.25H0.916667C0.673552 19.25 0.440394 19.3422 0.268485 19.5063C0.0965771 19.6704 0 19.8929 0 20.125C0 20.3571 0.0965771 20.5796 0.268485 20.7437C0.440394 20.9078 0.673552 21 0.916667 21H17.4167C17.6598 21 17.8929 20.9078 18.0648 20.7437C18.2368 20.5796 18.3333 20.3571 18.3333 20.125C18.3333 19.8929 18.2368 19.6704 18.0648 19.5063C17.8929 19.3422 17.6598 19.25 17.4167 19.25Z" fill="#64AD8E"></path> </svg> 