<svg width="32" height="32" viewBox="0 0 32 32" fill="none" xmlns="http://www.w3.org/2000/svg">
<path d="M20.6667 22.6667C21.2222 22.6667 21.6947 22.4724 22.084 22.084C22.4733 21.6956 22.6675 21.2231 22.6667 20.6667C22.6658 20.1102 22.4715 19.6382 22.084 19.2507C21.6964 18.8631 21.224 18.6684 20.6667 18.6667C20.1093 18.6649 19.6373 18.8596 19.2507 19.2507C18.864 19.6418 18.6693 20.1138 18.6667 20.6667C18.664 21.2196 18.8587 21.692 19.2507 22.084C19.6427 22.476 20.1147 22.6702 20.6667 22.6667ZM8.66666 22.6667C9.22221 22.6667 9.69466 22.4724 10.084 22.084C10.4733 21.6956 10.6675 21.2231 10.6667 20.6667C10.6658 20.1102 10.4715 19.6382 10.084 19.2507C9.69643 18.8631 9.22399 18.6684 8.66666 18.6667C8.10932 18.6649 7.63732 18.8596 7.25066 19.2507C6.86399 19.6418 6.66932 20.1138 6.66666 20.6667C6.66399 21.2196 6.85866 21.692 7.25066 22.084C7.64266 22.476 8.11466 22.6702 8.66666 22.6667ZM22.6667 16C20.8222 16 19.2502 15.3498 17.9507 14.0493C16.6511 12.7489 16.0009 11.1769 16 9.33333C16 7.51111 16.6444 5.94444 17.9333 4.63333C19.2222 3.32222 20.8 2.66667 22.6667 2.66667C24.5111 2.66667 26.0835 3.31644 27.384 4.616C28.6844 5.91555 29.3342 7.488 29.3333 9.33333C29.3324 11.1787 28.6822 12.7511 27.3827 14.0507C26.0831 15.3502 24.5111 16 22.6667 16ZM22 10.6667H23.3333V5.33333H22V10.6667ZM22.6667 13.3333C22.8444 13.3333 23 13.2667 23.1333 13.1333C23.2667 13 23.3333 12.8444 23.3333 12.6667C23.3333 12.4889 23.2667 12.3333 23.1333 12.2C23 12.0667 22.8444 12 22.6667 12C22.4889 12 22.3333 12.0667 22.2 12.2C22.0667 12.3333 22 12.4889 22 12.6667C22 12.8444 22.0667 13 22.2 13.1333C22.3333 13.2667 22.4889 13.3333 22.6667 13.3333ZM3.99999 29.3333C3.62221 29.3333 3.30577 29.2053 3.05066 28.9493C2.79555 28.6933 2.66755 28.3769 2.66666 28V17.3333L5.46666 9.33333C5.59999 8.93333 5.8391 8.61111 6.18399 8.36667C6.52888 8.12222 6.91199 8 7.33332 8H13.4333C13.3667 8.44444 13.3333 8.88889 13.3333 9.33333C13.3333 9.77778 13.3667 10.2222 13.4333 10.6667H7.79999L6.39999 14.6667H15.0333C15.9222 15.9333 17.0333 16.9169 18.3667 17.6173C19.7 18.3178 21.1333 18.6676 22.6667 18.6667C23.3555 18.6667 24.0391 18.5947 24.7173 18.4507C25.3955 18.3067 26.0453 18.0787 26.6667 17.7667V28C26.6667 28.3778 26.5387 28.6947 26.2827 28.9507C26.0267 29.2067 25.7102 29.3342 25.3333 29.3333H24C23.6222 29.3333 23.3058 29.2053 23.0507 28.9493C22.7955 28.6933 22.6675 28.3769 22.6667 28V26.6667H6.66666V28C6.66666 28.3778 6.53866 28.6947 6.28266 28.9507C6.02666 29.2067 5.71021 29.3342 5.33332 29.3333H3.99999Z" fill="#D99B3F"/>
</svg>
