<?xml version="1.0" encoding="iso-8859-1"?>
<!-- Generator: Adobe Illustrator 24.2.3, SVG Export Plug-In . SVG Version: 6.00 Build 0)  -->
<svg version="1.1" id="Layer_1" xmlns="http://www.w3.org/2000/svg" xmlns:xlink="http://www.w3.org/1999/xlink" x="0px" y="0px"
	 viewBox="0 0 24 24" style="enable-background:new 0 0 24 24;" xml:space="preserve">
<g>
	<path d="M12,10c-1.379,0-2.5,1.121-2.5,2.5S10.621,15,12,15s2.5-1.121,2.5-2.5S13.379,10,12,10z M12,14c-0.827,0-1.5-0.673-1.5-1.5
		S11.173,11,12,11s1.5,0.673,1.5,1.5S12.827,14,12,14z"/>
	<path d="M18,3H6C4.346,3,3,4.346,3,6v12c0,1.654,1.346,3,3,3h12c1.654,0,3-1.346,3-3V6C21,4.346,19.654,3,18,3z M17,15
		c0,0.552-0.448,1-1,1H8c-0.552,0-1-0.448-1-1v-5c0-0.552,0.448-1,1-1c0-0.276,0.224-0.5,0.5-0.5S9,8.724,9,9h0.5l0.352-0.777
		C9.944,8.084,10.1,8,10.268,8h3.465c0.167,0,0.323,0.084,0.416,0.223L14.5,9H16c0.552,0,1,0.448,1,1V15z"/>
	<circle cx="15.5" cy="10.5" r="0.5"/>
</g>
</svg>