<svg width="13" height="14" viewBox="0 0 13 14" fill="none" xmlns="http://www.w3.org/2000/svg">
<path d="M12.25 5.02578V1.6625C12.2505 1.5017 12.2192 1.34238 12.158 1.19369C12.0968 1.045 12.0068 0.909862 11.8932 0.796042C11.7796 0.682222 11.6446 0.591957 11.4961 0.530428C11.3475 0.4689 11.1883 0.43732 11.0275 0.437501H7.66608C7.44567 0.437954 7.23434 0.5253 7.07792 0.680587L0.357918 7.39867C0.128727 7.6286 3.05176e-05 7.94 3.05176e-05 8.26465C3.05176e-05 8.58929 0.128727 8.9007 0.357918 9.13063L3.55714 12.3298C3.78698 12.5591 4.09836 12.6878 4.42298 12.6878C4.7476 12.6878 5.05897 12.5591 5.28882 12.3298L12.0069 5.61395C12.1622 5.45756 12.2496 5.2462 12.25 5.02578ZM9.62499 3.9375C9.45193 3.9375 9.28276 3.88618 9.13887 3.79004C8.99497 3.69389 8.88282 3.55723 8.8166 3.39735C8.75037 3.23746 8.73304 3.06153 8.7668 2.8918C8.80056 2.72206 8.8839 2.56615 9.00627 2.44378C9.12864 2.32141 9.28455 2.23808 9.45429 2.20431C9.62402 2.17055 9.79995 2.18788 9.95984 2.25411C10.1197 2.32033 10.2564 2.43248 10.3525 2.57638C10.4487 2.72027 10.5 2.88944 10.5 3.0625C10.5 3.29457 10.4078 3.51712 10.2437 3.68122C10.0796 3.84531 9.85705 3.9375 9.62499 3.9375Z" fill="#D78707"/>
<g filter="url(#filter0_d_2_12)">
<path d="M3.33288 8.1861L3.63776 8.47893L2.77026 9.38213L2.46538 9.08931L3.33288 8.1861ZM4.12737 10.2881L2.5582 8.78099C2.45213 8.67911 2.38398 8.57397 2.35377 8.46558C2.32416 8.35655 2.32667 8.24906 2.36128 8.1431C2.39589 8.03714 2.45743 7.93811 2.54588 7.84601C2.60567 7.78376 2.66503 7.73149 2.72398 7.68919C2.78353 7.64626 2.82932 7.61575 2.86134 7.59766L3.09667 7.9629C3.07634 7.9739 3.05266 7.98901 3.02565 8.00824C2.99924 8.02684 2.97444 8.0482 2.95126 8.07234C2.89392 8.13205 2.86793 8.18707 2.87331 8.23741C2.87805 8.28715 2.90519 8.33581 2.95473 8.38339L4.51628 9.88321L4.12737 10.2881ZM5.03445 9.34372L3.57103 7.93815L3.94896 7.54467L4.20429 7.78991L4.21893 7.77467C4.15373 7.66075 4.12814 7.55009 4.14217 7.44267C4.15556 7.33464 4.20161 7.23966 4.2803 7.15773C4.29983 7.1374 4.32214 7.11671 4.34726 7.09565C4.37237 7.07459 4.39569 7.0573 4.41722 7.04379L4.77735 7.38969C4.75334 7.40325 4.72294 7.42473 4.68616 7.45412C4.64938 7.48352 4.61757 7.51219 4.59073 7.54013C4.53338 7.59984 4.49516 7.6657 4.47605 7.73771C4.45693 7.80848 4.45711 7.87949 4.47661 7.95072C4.49672 8.02132 4.53663 8.0853 4.59634 8.14264L5.42427 8.93785L5.03445 9.34372ZM6.69256 7.67457C6.54798 7.8251 6.39304 7.92539 6.22774 7.97544C6.06242 8.02424 5.89549 8.02387 5.72694 7.97433C5.55776 7.92417 5.39599 7.82497 5.24165 7.67673C5.09111 7.53215 4.98706 7.37604 4.92949 7.2084C4.87192 7.04077 4.86232 6.87341 4.90068 6.70633C4.93965 6.53862 5.02808 6.38299 5.16595 6.23944C5.25868 6.1429 5.36056 6.06797 5.4716 6.01466C5.58262 5.9601 5.69882 5.93128 5.82022 5.92821C5.94223 5.9245 6.06669 5.95002 6.19361 6.00477C6.3199 6.0589 6.44529 6.14575 6.56978 6.26533L6.68125 6.37239L5.49439 7.6081L5.24287 7.36652L6.06278 6.51286C6.00434 6.45673 5.94038 6.41972 5.87088 6.40181C5.80138 6.3839 5.73227 6.3853 5.66355 6.40599C5.5948 6.42544 5.53206 6.4647 5.47533 6.52377C5.41615 6.58538 5.37798 6.65373 5.36081 6.72882C5.34361 6.80267 5.34602 6.8758 5.36804 6.94824C5.38942 7.02006 5.4287 7.08404 5.48589 7.14019L5.72503 7.36988C5.79744 7.43942 5.87281 7.48618 5.95115 7.51013C6.0301 7.53346 6.10766 7.53407 6.18383 7.51198C6.26 7.48989 6.33072 7.44486 6.39599 7.3769C6.43931 7.33181 6.47261 7.28442 6.4959 7.23474C6.51919 7.18507 6.53094 7.13469 6.53116 7.08361C6.53137 7.03253 6.51977 6.98231 6.49635 6.93296L6.88167 6.58137C6.95356 6.68705 6.9948 6.80176 7.00539 6.9255C7.01596 7.04799 6.99545 7.1736 6.94386 7.30232C6.89224 7.4298 6.80847 7.55389 6.69256 7.67457ZM8.23265 6.0711C8.08806 6.22163 7.93312 6.32192 7.76783 6.37197C7.60251 6.42077 7.43557 6.4204 7.26702 6.37086C7.09784 6.3207 6.93608 6.2215 6.78173 6.07326C6.6312 5.92868 6.52715 5.77257 6.46958 5.60493C6.41201 5.4373 6.4024 5.26994 6.44077 5.10286C6.47974 4.93515 6.56816 4.77952 6.70603 4.63597C6.79876 4.53943 6.90065 4.4645 7.01169 4.41118C7.1227 4.35662 7.23891 4.32781 7.3603 4.32474C7.48231 4.32103 7.60677 4.34655 7.7337 4.4013C7.85998 4.45543 7.98537 4.54228 8.10987 4.66185L8.22134 4.76892L7.03447 6.00463L6.78295 5.76305L7.60286 4.90939C7.54443 4.85326 7.48046 4.81625 7.41096 4.79834C7.34146 4.78043 7.27235 4.78182 7.20363 4.80252C7.13489 4.82197 7.07215 4.86123 7.01541 4.9203C6.95624 4.98191 6.91806 5.05026 6.90089 5.12535C6.8837 5.19919 6.8861 5.27233 6.90812 5.34476C6.9295 5.41658 6.96878 5.48057 7.02597 5.53672L7.26511 5.76641C7.33752 5.83595 7.4129 5.8827 7.49124 5.90666C7.57019 5.92998 7.64775 5.9306 7.72391 5.90851C7.80008 5.88642 7.8708 5.84139 7.93608 5.77343C7.97939 5.72833 8.01269 5.68095 8.03598 5.63127C8.05927 5.5816 8.07103 5.53122 8.07124 5.48014C8.07146 5.42906 8.05986 5.37884 8.03644 5.32949L8.42175 4.9779C8.49364 5.08358 8.53489 5.19829 8.54548 5.32202C8.55605 5.44451 8.53553 5.57012 8.48394 5.69885C8.43232 5.82633 8.34856 5.95041 8.23265 6.0711Z" fill="white"/>
</g>
<defs>
<filter id="filter0_d_2_12" x="-2.11389" y="3.41003" width="14.9917" height="15.1123" filterUnits="userSpaceOnUse" color-interpolation-filters="sRGB">
<feFlood flood-opacity="0" result="BackgroundImageFix"/>
<feColorMatrix in="SourceAlpha" type="matrix" values="0 0 0 0 0 0 0 0 0 0 0 0 0 0 0 0 0 0 127 0" result="hardAlpha"/>
<feOffset dy="4"/>
<feGaussianBlur stdDeviation="2"/>
<feComposite in2="hardAlpha" operator="out"/>
<feColorMatrix type="matrix" values="0 0 0 0 0 0 0 0 0 0 0 0 0 0 0 0 0 0 0.25 0"/>
<feBlend mode="normal" in2="BackgroundImageFix" result="effect1_dropShadow_2_12"/>
<feBlend mode="normal" in="SourceGraphic" in2="effect1_dropShadow_2_12" result="shape"/>
</filter>
</defs>
</svg>
