<!-- icon666.com - MILLIONS vector ICONS FREE --><svg viewBox="0 0 64 64" xmlns="http://www.w3.org/2000/svg"><g id="free"><path d="m21.44 61-18.44-18.44 32.63-32.63 17.73.71.71 17.73z" fill="#f5c63f"></path><g fill="#352f40"><path d="m61.17 2.83c-2.27-2.27-7.44.46-11.17 4.17a22.89 22.89 0 0 0 -2.1 2.42l-12.23-.49a1.08 1.08 0 0 0 -.75.29l-32.63 32.63a1 1 0 0 0 0 1.42l18.44 18.44a1 1 0 0 0 .71.29 1 1 0 0 0 .71-.29l32.63-32.63a1 1 0 0 0 .29-.75l-.49-12.23a23.48 23.48 0 0 0 2.42-2.1c3.71-3.73 6.44-8.9 4.17-11.17zm-39.73 56.76-17-17 31.56-31.59 10.56.42c-1.6 2.69-2.2 5.34-.75 6.8a1 1 0 0 0 .71.29 1 1 0 0 0 .71-.29 1 1 0 0 0 0-1.42c-.62-.61-.15-2.72 1.62-5.29l3.53.14.67 16.35zm33-46-.12-3a1 1 0 0 0 -1-1l-3-.12c.33-.36.66-.73 1-1.1 3.82-3.81 7.49-5 8.33-4.17s-.35 4.51-4.17 8.33c-.26.41-.63.75-1 1.07z"></path><path d="m46.27 26.25-3.55 3.55-3.55-3.55 3.55-3.55a1 1 0 0 0 -1.42-1.42l-3.55 3.55-3.55-3.55 3.55-3.55a1 1 0 1 0 -1.41-1.41l-4.26 4.25a1 1 0 0 0 0 1.42l9.92 9.93a1 1 0 0 0 1.42 0l4.25-4.26a1 1 0 1 0 -1.41-1.41z"></path><path d="m39.18 33.34-3.55 3.55-3.55-3.55 3.55-3.55a1 1 0 0 0 -1.42-1.41l-3.55 3.54-3.55-3.55 3.55-3.55a1 1 0 0 0 -1.41-1.41l-4.25 4.26a1 1 0 0 0 0 1.41l9.92 9.92a1 1 0 0 0 .71.29 1 1 0 0 0 .7-.29l4.26-4.26a1 1 0 1 0 -1.41-1.41z"></path><path d="m17.89 47.52 3.55-3.52a1 1 0 0 0 0-1.42 1 1 0 0 0 -1.41 0l-3.55 3.55-3.55-3.55 3.54-3.58a1 1 0 1 0 -1.41-1.41l-4.26 4.26a1 1 0 0 0 0 1.42l5 5 5 5a1 1 0 0 0 .71.29 1 1 0 0 0 .71-.29 1 1 0 0 0 0-1.42z"></path><path d="m32.87 40.14-7.06-.54.24-.24a4.52 4.52 0 0 0 -3.19-7.7 4.45 4.45 0 0 0 -3.19 1.34l-1.77 1.76a1 1 0 0 0 0 1.41l5 5 4.95 5a1 1 0 0 0 1.41 0 1 1 0 0 0 0-1.41l-3-3 6.52.5h.08a1 1 0 0 0 1-.92 1 1 0 0 0 -.99-1.2zm-11.79-5.74a2.51 2.51 0 1 1 3.56 3.6l-1.07 1-3.57-3.53z"></path></g></g></svg>