<?xml version="1.0" encoding="UTF-8"?> <svg xmlns="http://www.w3.org/2000/svg" width="25" height="25" viewBox="0 0 25 25" fill="none"> <path fill-rule="evenodd" clip-rule="evenodd" d="M12.1997 21.7798C12.1999 21.7799 12.2001 21.78 12.4999 21.3542L12.1997 21.7798ZM12.8001 21.7798L12.802 21.7784L12.8067 21.7751L12.8233 21.7632C12.8375 21.753 12.858 21.7382 12.8842 21.719C12.9367 21.6804 13.0125 21.6239 13.1083 21.5503C13.2998 21.403 13.5713 21.1872 13.8963 20.9093C14.5456 20.3542 15.4118 19.5483 16.2793 18.5447C18.0019 16.552 19.7916 13.7081 19.7916 10.4567C19.7916 8.51323 19.0241 6.6487 17.657 5.27349C16.2898 3.8982 14.4348 3.125 12.4999 3.125C10.5651 3.125 8.71007 3.8982 7.34284 5.27349C5.97575 6.6487 5.20825 8.51323 5.20825 10.4567C5.20825 13.7081 6.99789 16.552 8.72049 18.5447C9.58804 19.5483 10.4542 20.3542 11.1035 20.9093C11.4285 21.1872 11.7001 21.403 11.8915 21.5503C11.9873 21.6239 12.0631 21.6804 12.1156 21.719C12.1418 21.7382 12.1623 21.753 12.1765 21.7632L12.1931 21.7751L12.1978 21.7784L12.1997 21.7798C12.3796 21.9064 12.6203 21.9064 12.8001 21.7798ZM12.4999 21.3542L12.8001 21.7798C12.7999 21.7799 12.7998 21.78 12.4999 21.3542ZM15.1041 10.4167C15.1041 11.8549 13.9381 13.0208 12.4999 13.0208C11.0617 13.0208 9.89575 11.8549 9.89575 10.4167C9.89575 8.97844 11.0617 7.8125 12.4999 7.8125C13.9381 7.8125 15.1041 8.97844 15.1041 10.4167Z" fill="white"></path> </svg> 