<!-- icon666.com - MILLIONS vector ICONS FREE --><svg viewBox="-4 1 511 511.99999" xmlns="http://www.w3.org/2000/svg"><path d="m443.429688 511.992188h-218.789063c-9.050781 0-16.382813-7.332032-16.382813-16.382813 0-9.054687 7.339844-16.375 16.382813-16.375h218.789063c9.054687 0 16.382812 7.332031 16.382812 16.382813 0 9.050781-7.328125 16.375-16.382812 16.375zm0 0"></path><path d="m270.257812 512c-2.21875 0-4.480468-.453125-6.636718-1.410156-62.117188-27.546875-102.246094-89.566406-102.246094-157.980469v-232.179687c0-37.742188 27.003906-57.5 53.691406-57.5 26.429688 0 54.515625 20.15625 54.515625 57.5v66.222656c21.097657-9.085938 49.53125-4.3125 65.515625 15.175781 9.707032-7.914063 22-12.230469 35.019532-12.230469 16.683593 0 33.484374 7.304688 44.152343 21.53125 9.511719-7.019531 21.351563-10.84375 33.855469-10.84375 27.539062 0 55.414062 19.089844 55.414062 55.589844v96.734375c0 39.707031-13.703124 78.460937-38.585937 109.140625-5.71875 7.019531-16.019531 8.09375-23.050781 2.40625-7.027344-5.6875-8.101563-16.019531-2.402344-23.046875 20.152344-24.859375 31.253906-56.292969 31.253906-88.5v-96.734375c0-16.835938-12.199218-22.816406-22.648437-22.816406-6.09375 0-11.871094 2.050781-15.867188 5.625-4.453125 3.988281-6.71875 9.773437-6.71875 17.199218 0 9.054688-7.328125 16.382813-16.382812 16.382813-9.050781 0-16.390625-7.328125-16.390625-16.382813v-8.277343c0-18.636719-12.203125-25.25-22.65625-25.25-5.992188 0-11.492188 2.09375-15.488282 5.894531-4.683593 4.453125-7.070312 10.96875-7.070312 19.355469 0 9.050781-7.332031 16.382812-16.382812 16.382812-9.054688 0-16.394532-7.332031-16.394532-16.382812v-8.238281c0-18.101563-12.199218-24.535157-22.65625-24.535157-5.953125 0-11.632812 2.121094-15.582031 5.8125-4.625 4.304688-6.96875 10.605469-6.96875 18.714844 0 9.054687-7.328125 16.382813-16.382813 16.382813-9.050781 0-16.382812-7.328126-16.382812-16.382813v-118.929687c0-18.253907-11.714844-24.726563-21.742188-24.726563-10.117187 0-20.917968 6.5-20.917968 24.726563v232.179687c0 55.46875 32.480468 105.726563 82.757812 128.027344 8.28125 3.664062 12.007813 13.347656 8.332032 21.628906-2.679688 6.105469-8.679688 9.734375-14.953126 9.734375zm0 0"></path><path d="m352.285156 167.164062h-56.289062c-9.054688 0-16.394532-7.332031-16.394532-16.382812s7.339844-16.382812 16.394532-16.382812h56.289062c10.546875 0 19.109375-8.582032 19.109375-19.117188v-63.398438c0-10.542968-8.574219-19.117187-19.109375-19.117187h-273.605468c-10.542969 0-19.117188 8.582031-19.117188 19.117187v63.410157c0 10.542969 8.574219 19.113281 19.117188 19.113281h99.09375c9.054687 0 16.382812 7.332031 16.382812 16.382812 0 9.054688-7.339844 16.382813-16.382812 16.382813h-99.09375c-28.613282 0-51.882813-23.269531-51.882813-51.878906v-63.410157c-.007813-28.613281 23.269531-51.882812 51.882813-51.882812h273.605468c28.613282 0 51.882813 23.269531 51.882813 51.882812v63.410157c-.007813 28.601562-23.277344 51.871093-51.882813 51.871093zm0 0"></path><path d="m42.550781 373.378906c-9.550781 0-18.511719-3.710937-25.238281-10.449218l-12.007812-11.996094c-6.398438-6.390625-6.410157-16.765625-.011719-23.164063 6.398437-6.417969 16.773437-6.40625 23.171875-.007812l12.019531 12.007812c1.390625 1.382813 2.765625 1.382813 4.152344 0l41.96875-41.960937c1.101562-1.101563 1.101562-3.050782-.007813-4.160156l-12.007812-12.019532c-6.398438-6.398437-6.398438-16.773437 0-23.160156 6.398437-6.410156 16.78125-6.398438 23.171875.007812l12.007812 12.015626c13.90625 13.914062 13.90625 36.5625 0 50.480468l-41.980469 41.96875c-6.726562 6.726563-15.6875 10.4375-25.238281 10.4375zm0 0"></path><path d="m47.210938 315.59375c-4.191407 0-8.386719-1.597656-11.582032-4.792969l-12.015625-12.015625c-13.917969-13.933594-13.898437-36.582031.015625-50.496094l41.960938-41.953124c13.914062-13.921876 36.570312-13.90625 50.488281 0l12.007813 12.007812c6.398437 6.398438 6.398437 16.773438 0 23.164062-6.390626 6.417969-16.765626 6.417969-23.171876.007813l-12.007812-12.007813c-1.128906-1.125-3.035156-1.125-4.152344 0l-41.960937 41.953126c-1.109375 1.109374-1.117188 3.050781-.007813 4.160156l12.007813 12.007812c6.398437 6.398438 6.398437 16.773438 0 23.164063-3.195313 3.203125-7.386719 4.800781-11.582031 4.800781zm0 0"></path></svg>