<svg enable-background="new 0 0 64 64" viewBox="0 0 64 64" xmlns="http://www.w3.org/2000/svg"><g id="_x32_0-Chat"><g><path d="m55.8037109 24.5966797h-30c-.5527344 0-1 .4477539-1 1v20c0 .5522461.4472656 1 1 1h15.7841797l3.5556641 6.2910156c.1767578.3139648.5097656.5078125.8701172.5078125s.6933594-.1938477.8701172-.5078125l3.5556641-6.2910156h5.3642578c.5527344 0 1-.4477539 1-1v-20c-.0000001-.5522461-.4472657-1-1.0000001-1zm-5.8925781 17h-18.2148437c-.5527344 0-1-.4477539-1-1s.4472656-1 1-1h18.2148438c.5527344 0 1 .4477539 1 1s-.4472657 1-1.0000001 1zm0-5h-18.2148437c-.5527344 0-1-.4477539-1-1s.4472656-1 1-1h18.2148438c.5527344 0 1 .4477539 1 1s-.4472657 1-1.0000001 1zm0-5h-14.9160156c-.5527344 0-1-.4477539-1-1s.4472656-1 1-1h14.9160156c.5527344 0 1 .4477539 1 1s-.4472656 1-1 1z"></path><path d="m39.1962891 22.5966797v-10.9921875c0-.5522461-.4472656-1-1-1h-30c-.5527344 0-1 .4477539-1 1v20c0 .5522461.4472656 1 1 1h4.3642578l3.5556641 6.2910156c.1767578.3139648.5097656.5078125.8701172.5078125s.6933594-.1938477.8701172-.5078125l3.5556641-6.2910156h1.3916016v-7.0078125c0-1.6542969 1.3457031-3 3-3zm-19.9042969 5.0078125h-5.203125c-.5527344 0-1-.4477539-1-1s.4472656-1 1-1h5.203125c.5527344 0 1 .4477539 1 1s-.4472656 1-1 1zm0-5h-5.203125c-.5527344 0-1-.4477539-1-1s.4472656-1 1-1h5.203125c.5527344 0 1 .4477539 1 1s-.4472656 1-1 1zm-5.203125-5c-.5527344 0-1-.4477539-1-1s.4472656-1 1-1h14.9160156c.5527344 0 1 .4477539 1 1s-.4472656 1-1 1z"></path></g></g></svg>