<svg className="call" width="64" height="58" viewBox="0 0 64 58" fill="none" xmlns="http://www.w3.org/2000/svg">
<path d="M20.4229 11.072C17.7349 11.072 15.5429 12.352 13.8469 14.912C12.1509 17.44 11.3029 20.56 11.3029 24.272C11.3029 28.592 12.1189 31.776 13.7509 33.824C15.4149 35.84 17.4149 36.848 19.7509 36.848C21.0949 36.848 22.3109 36.704 23.3989 36.416V26.096C23.1109 25.456 22.1029 25.136 20.3749 25.136V24.128H32.5189V25.136C30.7909 25.136 29.7829 25.456 29.4949 26.096V34.16C28.9509 35.152 27.8149 36.128 26.0869 37.088C24.3589 38.016 22.2149 38.48 19.6549 38.48C15.3349 38.48 11.7509 37.072 8.90288 34.256C6.05488 31.44 4.63087 28.144 4.63087 24.368C4.63087 21.392 5.43088 18.752 7.03088 16.448C8.63088 14.112 10.6149 12.368 12.9829 11.216C15.3509 10.032 17.8149 9.44 20.3749 9.44C21.3029 9.44 22.5029 9.68 23.9749 10.16C25.4469 10.64 26.2629 10.88 26.4229 10.88C26.8069 10.88 26.9989 10.56 26.9989 9.92H28.1029L28.5829 16.88H27.5269C27.3349 15.568 26.4389 14.272 24.8389 12.992C23.2389 11.712 21.7669 11.072 20.4229 11.072Z" fill="black"/>
<path d="M20.5625 48.0097H16.7287C15.766 48.0097 14.986 48.7897 14.986 49.7524C14.986 50.715 15.766 51.495 16.7287 51.495H20.5625C21.5252 51.495 22.3052 50.715 22.3052 49.7524C22.3052 48.79 21.5252 48.0097 20.5625 48.0097Z" fill="black"/>
<path d="M59.9338 26.2724H37.2912V5.95035C37.2912 3.06775 34.9458 0.722351 32.0632 0.722351H5.228C2.3454 0.722351 0 3.06752 0 5.95035V52.0144C0 54.897 2.3454 57.2424 5.228 57.2424H30.3133C30.427 57.2658 30.545 57.2779 30.6656 57.2779H59.9338C62.1758 57.2779 64 55.4537 64 53.2117V30.3388C64 28.0966 62.176 26.2724 59.9338 26.2724ZM59.6926 29.758L45.1446 41.985C44.8128 42.264 44.1617 42.264 43.8297 41.985L37.2912 36.4895V29.758H59.6926ZM5.228 4.20768H32.0632C33.0242 4.20768 33.8059 4.98933 33.8059 5.95035V42.1822H3.48533V5.95035C3.48533 4.98933 4.26698 4.20768 5.228 4.20768ZM3.48533 52.0144V45.6676H33.8059V52.0144C33.8059 52.9754 33.0242 53.757 32.0632 53.757H5.228C4.26698 53.757 3.48533 52.9752 3.48533 52.0144ZM59.9338 53.7926H36.9791C37.1808 53.237 37.2912 52.6385 37.2912 52.0144V41.0421L41.587 44.6529C42.4002 45.3365 43.4435 45.678 44.4873 45.678C45.5305 45.678 46.5743 45.3362 47.387 44.6529L60.5147 33.6195V53.2117C60.5147 53.5265 60.2489 53.7926 59.9338 53.7926Z" fill="black"/>
</svg>
