<svg width="64" height="64" viewBox="0 0 64 64" fill="none" xmlns="http://www.w3.org/2000/svg">
<path d="M20.5625 51.0097H16.7287C15.766 51.0097 14.986 51.7897 14.986 52.7524C14.986 53.715 15.766 54.495 16.7287 54.495H20.5625C21.5252 54.495 22.3052 53.715 22.3052 52.7524C22.3052 51.79 21.5252 51.0097 20.5625 51.0097Z" fill="black"/>
<path d="M59.9338 29.2724H37.2912V8.95035C37.2912 6.06775 34.9458 3.72235 32.0632 3.72235H5.228C2.3454 3.72235 0 6.06752 0 8.95035V55.0144C0 57.897 2.3454 60.2424 5.228 60.2424H30.3133C30.427 60.2658 30.545 60.2779 30.6656 60.2779H59.9338C62.1758 60.2779 64 58.4537 64 56.2117V33.3388C64 31.0966 62.176 29.2724 59.9338 29.2724ZM59.6926 32.758L45.1446 44.985C44.8128 45.264 44.1617 45.264 43.8297 44.985L37.2912 39.4895V32.758H59.6926ZM5.228 7.20768H32.0632C33.0242 7.20768 33.8059 7.98933 33.8059 8.95035V45.1822H3.48533V8.95035C3.48533 7.98933 4.26698 7.20768 5.228 7.20768ZM3.48533 55.0144V48.6676H33.8059V55.0144C33.8059 55.9754 33.0242 56.757 32.0632 56.757H5.228C4.26698 56.757 3.48533 55.9752 3.48533 55.0144ZM59.9338 56.7926H36.9791C37.1808 56.237 37.2912 55.6385 37.2912 55.0144V44.0421L41.587 47.6529C42.4002 48.3365 43.4435 48.678 44.4873 48.678C45.5305 48.678 46.5743 48.3362 47.387 47.6529L60.5147 36.6195V56.2117C60.5147 56.5265 60.2489 56.7926 59.9338 56.7926Z" fill="black"/>
<path d="M20.4229 14.072C17.7349 14.072 15.5429 15.352 13.8469 17.912C12.1509 20.44 11.3029 23.56 11.3029 27.272C11.3029 31.592 12.1189 34.776 13.7509 36.824C15.4149 38.84 17.4149 39.848 19.7509 39.848C21.0949 39.848 22.3109 39.704 23.3989 39.416V29.096C23.1109 28.456 22.1029 28.136 20.3749 28.136V27.128H32.5189V28.136C30.7909 28.136 29.7829 28.456 29.4949 29.096V37.16C28.9509 38.152 27.8149 39.128 26.0869 40.088C24.3589 41.016 22.2149 41.48 19.6549 41.48C15.3349 41.48 11.7509 40.072 8.90288 37.256C6.05488 34.44 4.63087 31.144 4.63087 27.368C4.63087 24.392 5.43088 21.752 7.03088 19.448C8.63088 17.112 10.6149 15.368 12.9829 14.216C15.3509 13.032 17.8149 12.44 20.3749 12.44C21.3029 12.44 22.5029 12.68 23.9749 13.16C25.4469 13.64 26.2629 13.88 26.4229 13.88C26.8069 13.88 26.9989 13.56 26.9989 12.92H28.1029L28.5829 19.88H27.5269C27.3349 18.568 26.4389 17.272 24.8389 15.992C23.2389 14.712 21.7669 14.072 20.4229 14.072Z" fill="black"/>
</svg>
