<!-- icon666.com - MILLIONS vector ICONS FREE --><svg id="Layer_1" enable-background="new 0 0 24 24" viewBox="0 0 24 24" xmlns="http://www.w3.org/2000/svg"><circle cx="12" cy="12" fill="#fd4084" r="12"></circle><path d="m15.3 6.8c0-.5.3-.8.8-.8s1 .1 1.5.3c.6.2 1 .6 1.3.9.4.4.7.8.9 1.3s.3 1 .3 1.5c0 .6-.1 1-.3 1.5-.2.6-.5 1-.9 1.3l-.8.9-2.6 2.6c-.4.4-.8.7-1.3.9s-1 .3-1.5.3-1-.1-1.5-.3c-.6-.2-1-.6-1.3-.9-.4-.4-.7-.8-.9-1.3s-.3-1-.3-1.6c0-.5.1-1 .3-1.5.2-.6.6-1 .9-1.3l.9-.9c.3-.3.8-.3 1.1 0s.3.8 0 1.1l-.9.9c-.2.2-.4.5-.6.8-.1.3-.2.6-.2.9 0 .4.1.7.2 1 .1.2.2.5.6.8.3.3.5.4.8.6s.6.2.9.2.6-.1.9-.2c.2-.1.5-.2.8-.6l2.6-2.6.8-.9c.2-.2.4-.5.6-.8s.2-.6.2-.9c0-.2-.1-.6-.2-.9-.1-.2-.2-.5-.6-.8s-.5-.4-.8-.5c-.2-.1-.6-.2-.9-.2-.5 0-.8-.3-.8-.8zm-3.9 1.2c-.3 0-.6.1-.9.2-.3 0-.5.2-.8.5l-2.7 2.7-.8.9c-.2.2-.4.5-.6.8-.1.2-.2.6-.2.9s.1.6.2.9c.1.2.2.5.6.8.2.2.5.4.8.6s.6.2.9.2c.5 0 .8.3.8.8s-.3.8-.8.8-1-.1-1.5-.3c-.6-.2-1-.6-1.3-.9s-.7-.8-.9-1.3-.3-1-.3-1.5.1-1 .3-1.5c.2-.6.5-1 .9-1.3l.8-.9 2.7-2.7c.4-.4.8-.7 1.3-.9s1-.3 1.5-.3 1 .1 1.5.3c.6.2 1 .6 1.3.9.4.4.7.8.9 1.3s.3 1 .3 1.5c0 .6-.1 1-.3 1.5-.2.6-.5 1-.9 1.3l-.9 1c-.3.3-.8.3-1.1.1s-.3-.8-.1-1.1l.9-1c.2-.2.4-.5.6-.8s.2-.6.2-.9-.1-.6-.2-.9c-.1-.2-.2-.5-.6-.8s-.5-.4-.8-.6c-.2-.2-.5-.3-.8-.3z" fill="#fff"></path></svg>