<svg viewBox="0 0 24 24" xmlns="http://www.w3.org/2000/svg"><g id="Layer_4" data-name="Layer 4"><path d="m17 5.5h-10a1.5017 1.5017 0 0 0 -1.5 1.5v10a1.5017 1.5017 0 0 0 1.5 1.5h10a1.5017 1.5017 0 0 0 1.5-1.5v-10a1.5017 1.5017 0 0 0 -1.5-1.5zm-3.94 9.6816a3 3 0 0 1 -4.2421-4.2416.5.5 0 1 1 .707.707 2.0005 2.0005 0 0 0 0 2.8281 2.0476 2.0476 0 0 0 2.8286 0 .5.5 0 1 1 .707.707zm.3536-3.8886-2.1206 2.1211a.5.5 0 0 1 -.7071-.7071l2.1211-2.1211a.5.5 0 0 1 .7071.7071zm1.768 1.7675a.5.5 0 1 1 -.707-.707 2.0005 2.0005 0 0 0 0-2.8281 2.0476 2.0476 0 0 0 -2.8286 0 .5.5 0 1 1 -.707-.707 3.0729 3.0729 0 0 1 4.2426 0 3 3 0 0 1 0 4.2421z"></path><path d="m12 0a12 12 0 1 0 12 12 12 12 0 0 0 -12-12zm7.5 17a2.5026 2.5026 0 0 1 -2.5 2.5h-10a2.5026 2.5026 0 0 1 -2.5-2.5v-10a2.5026 2.5026 0 0 1 2.5-2.5h10a2.5026 2.5026 0 0 1 2.5 2.5z"></path></g></svg>