<!-- icon666.com - MILLIONS vector ICONS FREE --><svg id="Layer_1" viewBox="0 0 32 32" xmlns="http://www.w3.org/2000/svg" xmlns:xlink="http://www.w3.org/1999/xlink"><linearGradient id="SVGID_1_" gradientUnits="userSpaceOnUse" x1=".003" x2="32.001" y1="29.976" y2="2.027"><stop offset=".0056" stop-color="#0056e0"></stop><stop offset="1" stop-color="#00e5b8"></stop></linearGradient><path d="m28.795.009h-25.584c-1.754 0-3.201 1.444-3.201 3.196v25.591c0 1.754 1.447 3.194 3.201 3.194h25.584c1.752 0 3.195-1.441 3.195-3.194v-25.59c.001-1.755-1.443-3.197-3.195-3.197zm1.061 24.216c0 3.103-2.531 5.634-5.633 5.634h-16.448c-3.103 0-5.634-2.531-5.634-5.634v-16.447c0-3.104 2.531-5.635 5.634-5.635h9.137c.589.012 1.055.5 1.044 1.088-.014.572-.473 1.032-1.044 1.044h-9.137c-1.96 0-3.501 1.542-3.501 3.502v16.446c0 1.959 1.541 3.501 3.501 3.501h16.448c1.958 0 3.502-1.542 3.502-3.501v-9.135c.011-.59.5-1.054 1.09-1.042.568.011 1.028.471 1.041 1.042zm0-12.788c-.012.588-.502 1.054-1.09 1.041-.569-.012-1.027-.47-1.041-1.041v-5.652l-11.884 11.882c-.405.426-1.082.443-1.507.036-.426-.407-.441-1.082-.037-1.507.01-.012.021-.023.033-.032l11.891-11.888h-5.65c-.59-.002-1.066-.482-1.063-1.071.002-.587.475-1.061 1.063-1.063h8.225c.588.002 1.063.481 1.061 1.071v8.224z" fill="url(#SVGID_1_)"></path></svg>