<!-- icon666.com - MILLIONS vector ICONS FREE --><svg version="1.1" id="Capa_1" xmlns="http://www.w3.org/2000/svg" xmlns:xlink="http://www.w3.org/1999/xlink" x="0px" y="0px" viewBox="0 0 512 512" style="enable-background:new 0 0 512 512;" xml:space="preserve"><path style="fill:#FFDB2D;" d="M492.372,380H19.628l7.691-21.279C46.351,306.069,56,250.985,56,195c0-85.467,69.533-155,155-155h90 c85.467,0,155,69.533,155,155c0,55.985,9.649,111.069,28.68,163.721L492.372,380z"></path><path style="fill:#9A4C00;" d="M484.68,358.721C465.649,306.069,456,250.985,456,195c0-85.467-69.533-155-155-155h-45v340h236.372 L484.68,358.721z"></path><g><path style="fill:#B38A65;" d="M233,487h-77c-41.355,0-75-33.645-75-75v-85h30v85c0,24.813,20.187,45,45,45h77V487z"></path><path style="fill:#B38A65;" d="M501,270h-30v-65c0-96.495-78.505-175-175-175h-80c-96.495,0-175,78.505-175,175v65H11v-65 C11,91.963,102.962,0,216,0h80c113.038,0,205,91.963,205,205V270z"></path></g><path style="fill:#A17852;" d="M296,0h-40v30h40c96.495,0,175,78.505,175,175v65h30v-65C501,91.963,409.038,0,296,0z"></path><path style="fill:#FF4F19;" d="M141,340H81.5C42.626,340,11,308.374,11,269.5S42.626,199,81.5,199H141V340z"></path><path style="fill:#FFF5CB;" d="M256,421c-79.953,0-145-65.047-145-145v-84c0-57.897,47.103-105,105-105h80 c57.897,0,105,47.103,105,105v84C401,355.953,335.953,421,256,421z"></path><path style="fill:#FF4F19;" d="M256,512c-22.056,0-40-17.944-40-40s17.944-40,40-40s40,17.944,40,40S278.056,512,256,512z"></path><g><path style="fill:#FF3200;" d="M430.5,340H371V199h59.5c38.874,0,70.5,31.626,70.5,70.5S469.374,340,430.5,340z"></path><path style="fill:#FF3200;" d="M256,432v80c22.056,0,40-17.944,40-40S278.056,432,256,432z"></path></g><path style="fill:#FFDBA9;" d="M296,87h-40v334c79.953,0,145-65.047,145-145v-84C401,134.103,353.897,87,296,87z"></path><path style="fill:#FF9A00;" d="M456,250h-55c-85.467,0-155-69.532-155-155V40h55c85.467,0,155,69.532,155,155V250z"></path></svg>