<svg width="40" height="39" viewBox="0 0 40 39" fill="none" xmlns="http://www.w3.org/2000/svg">
<g clipPath="url(#clip0_24_231)">
<path d="M20 0C8.9543 0 0 8.5175 0 19.0244C0 29.5313 8.9543 38.0488 20 38.0488C31.0457 38.0488 40 29.5313 40 19.0244C40 8.5175 31.0457 0 20 0ZM12.8125 7.5568C13.2246 7.53369 13.597 7.76798 13.8794 8.18382L16.6138 13.1164C16.9017 13.7009 16.7381 14.3267 16.3086 14.7443L15.0562 15.9357C14.9789 16.0365 14.928 16.1499 14.9268 16.2747C15.4071 18.0432 16.864 19.6745 18.1495 20.7963C19.4349 21.9181 20.8164 23.4369 22.6099 23.7967C22.8315 23.8555 23.1031 23.8766 23.2617 23.7364L24.7168 22.3267C25.2191 21.9646 25.9457 21.7891 26.4819 22.0852H26.5063L31.4404 24.8557C32.1646 25.2876 32.2397 26.1223 31.7211 26.63L28.3228 29.8371C27.8209 30.3267 27.1542 30.4912 26.5064 30.492C23.6415 30.4103 20.9345 29.0728 18.711 27.6982C15.0613 25.1727 11.7136 22.0402 9.61183 18.2557C8.80577 16.6688 7.85887 14.6439 7.94923 12.8726C7.9573 12.2063 8.14683 11.5534 8.64017 11.1239L12.0386 7.89129C12.3033 7.67701 12.5652 7.57069 12.8125 7.5568Z" fill="#5388FF"/>
</g>
<defs>
<clipPath id="clip0_24_231">
<rect width="40" height="38.0488" fill="white"/>
</clipPath>
</defs>
</svg>
