<svg className="call" height="64px" width="64px" version="1.1" id="Capa_1" xmlns="http://www.w3.org/2000/svg" xmlns:xlink="http://www.w3.org/1999/xlink" viewBox="0 0 275.44 275.44" xml:space="preserve" fill="#000000">

<g id="SVGRepo_bgCarrier" strokeWidth="0"/>

<g id="SVGRepo_tracerCarrier" strokeLinecap="round" stroke-linejoin="round"/>

<g id="SVGRepo_iconCarrier"> <g> <path style="fill:#000002;" d="M88.496,219.533h-16.5c-4.143,0-7.5,3.357-7.5,7.5c0,4.143,3.357,7.5,7.5,7.5h16.5 c4.143,0,7.5-3.357,7.5-7.5C95.996,222.891,92.639,219.533,88.496,219.533z"/> <path style="fill:#000002;" d="M257.94,125.981h-97.448V38.52c0-12.406-10.094-22.5-22.5-22.5H22.5C10.094,16.02,0,26.113,0,38.52 v198.248c0,12.406,10.094,22.5,22.5,22.5h107.961c0.489,0.101,0.997,0.153,1.516,0.153H257.94c9.649,0,17.5-7.851,17.5-17.5 v-98.439C275.44,133.832,267.59,125.981,257.94,125.981z M256.902,140.982l-62.611,52.622c-1.428,1.201-4.23,1.201-5.659,0 l-28.14-23.651v-28.971H256.902z M22.5,31.02h115.492c4.136,0,7.5,3.364,7.5,7.5v155.933H15V38.52 C15,34.384,18.364,31.02,22.5,31.02z M15,236.768v-27.315h130.492v27.315c0,4.136-3.364,7.5-7.5,7.5H22.5 C18.364,244.268,15,240.903,15,236.768z M257.94,244.421h-98.791c0.868-2.391,1.343-4.967,1.343-7.653v-47.222l18.488,15.54 c3.5,2.942,7.99,4.412,12.482,4.412c4.49,0,8.982-1.471,12.48-4.412l56.498-47.485v84.32 C260.44,243.276,259.296,244.421,257.94,244.421z"/> </g> </g>

</svg>