<svg viewBox="0 0 96 96" xmlns="http://www.w3.org/2000/svg"><g id="Layer_1"></g><g id="Layer_2"></g><g id="Layer_3"></g><g id="Layer_4"><g><g><path d="m13.355 10.369 17.151 17.151c.398-.544.805-1.082 1.288-1.566l4.367-4.37c.761-.767.761-2.011 0-2.777l-14.235-14.235c-.371-.372-.861-.572-1.385-.572-.525 0-1.02.206-1.389.572z"></path><path d="m4.003 29.221c0 6.127 2.385 11.882 6.717 16.217l39.849 39.846c4.327 4.328 10.085 6.716 16.209 6.716 5.959 0 11.546-2.297 15.833-6.404l-18.162-18.164c-4.373 1.243-9.267.205-12.702-3.224l-19.952-19.956c-2.444-2.441-3.789-5.691-3.789-9.152 0-1.227.224-2.407.554-3.556l-18.156-18.155c-4.108 4.29-6.401 9.879-6.401 15.832z"></path><path d="m91.425 76.851c.764-.767.764-2.011 0-2.777l-14.233-14.236c-.74-.743-2.034-.743-2.775 0l-4.361 4.364c-.492.489-1.035.892-1.577 1.287l17.151 17.156z"></path></g><path d="m87.276 5.103h-30.242c-2.365 0-4.29 1.928-4.29 4.293v19.012c0 2.365 1.925 4.293 4.29 4.293h3.5c1.168 0 2.114.944 2.114 2.111v7.383l9.521-8.922c.389-.372.908-.572 1.445-.572h13.663c2.365 0 4.287-1.928 4.287-4.293v-19.012c-.001-2.365-1.923-4.293-4.288-4.293zm-6.478 20.096h-17.286c-1.168 0-2.114-.944-2.114-2.111 0-1.168.946-2.111 2.114-2.111h17.287c1.168 0 2.114.944 2.114 2.111-.001 1.168-.947 2.111-2.115 2.111zm0-8.644h-17.286c-1.168 0-2.114-.944-2.114-2.111s.946-2.111 2.114-2.111h17.287c1.168 0 2.114.944 2.114 2.111s-.947 2.111-2.115 2.111z"></path></g></g></svg>