<!-- icon666.com - MILLIONS vector ICONS FREE --><svg viewBox="0 0 128 128" xmlns="http://www.w3.org/2000/svg"><g><rect fill="#2fcffc" height="116" rx="16" width="116" x="6" y="6" style="fill: rgb(247, 148, 5);"></rect><g fill="#fff5eb"><path d="m54.517 73.483c-5.855-5.855-10.88-10.906-14.759-19.244a5.4 5.4 0 0 1 1.066-6.094l8.176-8.171a4.224 4.224 0 0 0 .77-4.918l-6.651-12.926a5.768 5.768 0 0 0 -9.207-1.44l-10.154 10.154a16.04 16.04 0 0 0 -3.788 16.856c4.851 13.143 13.362 25.8 23.945 36.383s23.24 19.096 36.385 23.947a16.042 16.042 0 0 0 16.858-3.788l10.152-10.155a5.766 5.766 0 0 0 -1.441-9.206l-12.925-6.646a4.224 4.224 0 0 0 -4.918.77l-8.171 8.171a5.4 5.4 0 0 1 -6.094 1.066c-8.338-3.879-13.389-8.904-19.244-14.759z" fill="#fff5eb"></path><path d="m103.5 58.25a1.75 1.75 0 0 1 -1.75-1.75 30.284 30.284 0 0 0 -30.25-30.25 1.75 1.75 0 0 1 0-3.5 33.789 33.789 0 0 1 33.75 33.75 1.75 1.75 0 0 1 -1.75 1.75z" fill="#fff5eb"></path><path d="m89.5 62.25a1.75 1.75 0 0 1 -1.75-1.75 20.273 20.273 0 0 0 -20.25-20.25 1.75 1.75 0 0 1 0-3.5 23.777 23.777 0 0 1 23.75 23.75 1.75 1.75 0 0 1 -1.75 1.75z" fill="#fff5eb"></path></g></g></svg>