<svg width="33" height="32" viewBox="0 0 33 32" fill="none" xmlns="http://www.w3.org/2000/svg">
<g clipPath="url(#clip0_26_15)">
<path d="M16.76 0C7.92345 0 0.76001 7.16344 0.76001 16C0.76001 24.8366 7.92345 32 16.76 32C25.5966 32 32.76 24.8366 32.76 16C32.76 7.16344 25.5966 0 16.76 0ZM11.01 6.35547C11.3397 6.33603 11.6376 6.53307 11.8635 6.8828L14.051 11.0312C14.2813 11.5228 14.1505 12.0491 13.8069 12.4004L12.8049 13.4023C12.7431 13.4871 12.7024 13.5825 12.7014 13.6875C13.0857 15.1748 14.2512 16.5467 15.2796 17.4902C16.3079 18.4337 17.4132 19.711 18.8479 20.0137C19.0252 20.0631 19.2425 20.0809 19.3694 19.9629L20.5335 18.7774C20.9353 18.4728 21.5165 18.3252 21.9456 18.5742H21.9651L25.9123 20.9043C26.4917 21.2675 26.5517 21.9695 26.1369 22.3965L23.4182 25.0938C23.0167 25.5055 22.4833 25.6439 21.9651 25.6445C19.6732 25.5759 17.5076 24.451 15.7288 23.2949C12.8091 21.1709 10.1309 18.5364 8.44948 15.3535C7.80462 14.0189 7.0471 12.3159 7.1194 10.8262C7.12585 10.2658 7.27748 9.71675 7.67214 9.35552L10.3909 6.63677C10.6027 6.45656 10.8122 6.36715 11.01 6.35547Z" fill="#60D669"/>
</g>
<defs>
<clipPath id="clip0_26_15">
<rect width="32" height="32" fill="white" transform="translate(0.76001)"/>
</clipPath>
</defs>
</svg>
