<!-- icon666.com - MILLIONS vector ICONS FREE --><svg version="1.1" id="Capa_1" xmlns="http://www.w3.org/2000/svg" xmlns:xlink="http://www.w3.org/1999/xlink" x="0px" y="0px" viewBox="0 0 512 512" style="enable-background:new 0 0 512 512;" xml:space="preserve"><g><path style="fill:#B38A65;" d="M113,431H91c-41.355,0-75-33.645-75-75v-73h30v73c0,24.813,20.187,45,45,45h22V431z"></path><path style="fill:#B38A65;" d="M256,222h-30c0-49.626-40.374-90-90-90s-90,40.374-90,90H16c0-66.168,53.832-120,120-120 S256,155.832,256,222z"></path></g><path style="fill:#A17852;" d="M136,102v30c49.626,0,90,40.374,90,90h30C256,155.832,202.168,102,136,102z"></path><path style="fill:#9A4C00;" d="M80,301H45c-24.813,0-45-20.187-45-45s20.187-45,45-45h35V301z"></path><path style="fill:#703700;" d="M227,301h-35v-90h35c24.813,0,45,20.187,45,45S251.813,301,227,301z"></path><path style="fill:#FFDB2D;" d="M136,376c-47.421,0-86-38.58-86-86v-69c0-35.841,29.159-65,65-65h42c35.841,0,65,29.159,65,65v69 C222,337.42,183.421,376,136,376z"></path><path style="fill:#FF9A00;" d="M157,156h-21v220c47.421,0,86-38.58,86-86v-69C222,185.159,192.841,156,157,156z"></path><path style="fill:#FF4F19;" d="M512,512H322v-92.61l-47.287-99.304L370.541,368H512V512z"></path><rect x="322" y="441" style="fill:#FF3200;" width="190" height="71"></rect><path style="fill:#FFF5CB;" d="M512,329H317v-43.399l-41.163-30.187L317,227.972V183h195V329z"></path><polygon style="fill:#FFDBA9;" points="275.837,256 316.202,285.601 316.202,329 511.202,329 511.202,256 "></polygon><path style="fill:#FFF5CB;" d="M269.713,191.914L317,92.61V0h195v144H365.541L269.713,191.914z"></path><polygon style="fill:#FFDBA9;" points="317,71 317,92.61 269.713,191.914 365.541,144 512,144 512,71 "></polygon><g><rect x="369" y="56" style="fill:#B38A65;" width="94" height="30"></rect><rect x="369" y="241" style="fill:#B38A65;" width="94" height="30"></rect></g><rect x="369" y="426" style="fill:#FFDB2D;" width="94" height="30"></rect><path style="fill:#9A4C00;" d="M136,456c-22.056,0-40-17.944-40-40s17.944-40,40-40s40,17.944,40,40S158.056,456,136,456z"></path><g><rect x="369" y="71" style="fill:#A17852;" width="94" height="15"></rect><rect x="369" y="256" style="fill:#A17852;" width="94" height="15"></rect></g><rect x="369" y="441" style="fill:#FF9A00;" width="94" height="15"></rect><path style="fill:#703700;" d="M136,376v80c22.056,0,40-17.944,40-40S158.056,376,136,376z"></path></svg>