<svg width="32" height="32" viewBox="0 0 32 32" fill="none" xmlns="http://www.w3.org/2000/svg">
<g clipPath="url(#clip0_26_7)">
<path d="M16 0C11.7575 0 7.685 1.68675 4.6875 4.68625C1.68693 7.68696 0.000858621 11.7565 0 16C0 20.2417 1.6875 24.3142 4.6875 27.3137C7.685 30.3132 11.7575 32 16 32C20.2425 32 24.315 30.3132 27.3125 27.3137C30.3125 24.3142 32 20.2417 32 16C32 11.7583 30.3125 7.68575 27.3125 4.68625C24.315 1.68675 20.2425 0 16 0Z" fill="url(#paint0_linear_26_7)"/>
<path d="M7.2425 15.831C11.9075 13.799 15.0175 12.4593 16.5725 11.812C21.0175 9.96375 21.94 9.64275 22.5425 9.63188C22.675 9.62975 22.97 9.6625 23.1625 9.81813C23.3225 9.94938 23.3675 10.1269 23.39 10.2515C23.41 10.376 23.4375 10.6598 23.415 10.8813C23.175 13.4113 22.1325 19.5508 21.6025 22.3845C21.38 23.5835 20.9375 23.9855 20.51 24.0248C19.58 24.1103 18.875 23.4108 17.975 22.821C16.5675 21.8978 15.7725 21.3233 14.405 20.4225C12.825 19.3815 13.85 18.8093 14.75 17.8743C14.985 17.6295 19.08 13.9058 19.1575 13.568C19.1675 13.5258 19.1775 13.3683 19.0825 13.2853C18.99 13.202 18.8525 13.2305 18.7525 13.253C18.61 13.285 16.3625 14.772 12.0025 17.7138C11.365 18.1523 10.7875 18.366 10.2675 18.3548C9.6975 18.3425 8.5975 18.0318 7.78 17.7663C6.78 17.4405 5.9825 17.2683 6.0525 16.715C6.0875 16.427 6.485 16.1323 7.2425 15.831Z" fill="white"/>
</g>
<defs>
<linearGradient id="paint0_linear_26_7" x1="1600" y1="0" x2="1600" y2="3200" gradientUnits="userSpaceOnUse">
<stop stop-color="#2AABEE"/>
<stop offset="1" stop-color="#229ED9"/>
</linearGradient>
<clipPath id="clip0_26_7">
<rect width="32" height="32" fill="white"/>
</clipPath>
</defs>
</svg>
