<!-- icon666.com - MILLIONS vector ICONS FREE --><svg viewBox="0 0 512 512" xmlns="http://www.w3.org/2000/svg"><path d="m336.328125 271c3.953125 0 7.820313-1.601562 10.613281-4.390625 2.789063-2.800781 4.386719-6.660156 4.386719-10.609375s-1.597656-7.8125-4.386719-10.609375c-2.792968-2.789063-6.660156-4.390625-10.613281-4.390625-3.9375 0-7.808594 1.601562-10.597656 4.390625-2.800781 2.800781-4.402344 6.660156-4.402344 10.609375s1.601563 7.808594 4.402344 10.609375c2.789062 2.789063 6.648437 4.390625 10.597656 4.390625zm0 0" fill="#000000" style="fill: rgb(255, 255, 255);"></path><path d="m256 241c-3.949219 0-7.808594 1.601562-10.609375 4.390625-2.789063 2.800781-4.390625 6.660156-4.390625 10.609375s1.601562 7.808594 4.390625 10.609375c2.800781 2.789063 6.660156 4.390625 10.609375 4.390625s7.808594-1.601562 10.609375-4.390625c2.789063-2.800781 4.390625-6.660156 4.390625-10.609375s-1.601562-7.8125-4.390625-10.609375c-2.800781-2.789063-6.660156-4.390625-10.609375-4.390625zm0 0" fill="#000000" style="fill: rgb(255, 255, 255);"></path><path d="m175.671875 271c3.949219 0 7.808594-1.601562 10.597656-4.390625 2.789063-2.800781 4.402344-6.660156 4.402344-10.609375s-1.613281-7.8125-4.402344-10.609375c-2.789062-2.789063-6.660156-4.390625-10.597656-4.390625-3.953125 0-7.820313 1.601562-10.613281 4.390625-2.789063 2.800781-4.386719 6.660156-4.386719 10.609375s1.597656 7.808594 4.386719 10.609375c2.792968 2.789063 6.660156 4.390625 10.613281 4.390625zm0 0" fill="#000000" style="fill: rgb(255, 255, 255);"></path><path d="m95.328125 241c-3.9375 0-7.808594 1.601562-10.597656 4.390625-2.800781 2.800781-4.402344 6.660156-4.402344 10.609375s1.601563 7.808594 4.402344 10.609375c2.789062 2.789063 6.660156 4.390625 10.597656 4.390625 3.953125 0 7.820313-1.601562 10.613281-4.390625 2.789063-2.800781 4.386719-6.660156 4.386719-10.609375s-1.597656-7.8125-4.386719-10.609375c-2.792968-2.789063-6.660156-4.390625-10.613281-4.390625zm0 0" fill="#000000" style="fill: rgb(255, 255, 255);"></path><path d="m95.328125 321.328125c-3.949219 0-7.808594 1.601563-10.597656 4.402344-2.800781 2.789062-4.402344 6.648437-4.402344 10.597656s1.601563 7.820313 4.402344 10.609375c2.789062 2.792969 6.660156 4.390625 10.597656 4.390625 3.953125 0 7.820313-1.597656 10.613281-4.390625 2.789063-2.789062 4.386719-6.660156 4.386719-10.609375s-1.597656-7.808594-4.386719-10.597656c-2.792968-2.800781-6.660156-4.402344-10.613281-4.402344zm0 0" fill="#000000" style="fill: rgb(255, 255, 255);"></path><path d="m431.664062 279.714844v-192.414063c0-30.417969-24.746093-55.167969-55.164062-55.167969h-25.167969v-17.132812c0-8.285156-6.714843-15-15-15-8.28125 0-15 6.714844-15 15v17.132812h-50.332031v-17.132812c0-8.285156-6.714844-15-15-15s-15 6.714844-15 15v17.132812h-50.335938v-17.132812c0-8.285156-6.714843-15-15-15-8.28125 0-15 6.714844-15 15v17.132812h-50.332031v-17.132812c0-8.285156-6.714843-15-15-15-8.28125 0-15 6.714844-15 15v17.132812h-25.167969c-30.417968 0-55.164062 24.75-55.164062 55.167969v289.199219c0 30.417969 24.746094 55.167969 55.164062 55.167969h224.546876c16.230468 46.710937 60.6875 80.332031 112.855468 80.332031 65.855469 0 119.433594-53.578125 119.433594-119.433594 0-52.164062-33.621094-96.621094-80.335938-112.851562zm-376.5-217.582032h25.167969v17.132813c0 8.285156 6.71875 15 15 15 8.285157 0 15-6.714844 15-15v-17.132813h50.332031v17.132813c0 8.285156 6.71875 15 15 15 8.285157 0 15-6.714844 15-15v-17.132813h50.335938v17.132813c0 8.285156 6.714844 15 15 15s15-6.714844 15-15v-17.132813h50.332031v17.132813c0 8.285156 6.71875 15 15 15 8.285157 0 15-6.714844 15-15v-17.132813h25.167969c13.875 0 25.164062 11.289063 25.164062 25.167969v73.363281h-371.664062v-73.363281c0-13.878906 11.289062-25.167969 25.164062-25.167969zm0 339.535157c-13.875 0-25.164062-11.289063-25.164062-25.167969v-185.835938h371.664062v82.8125c-3.003906-.222656-6.035156-.34375-9.097656-.34375-65.855468 0-119.433594 53.578126-119.433594 119.433594 0 3.0625.117188 6.097656.34375 9.101563zm337.402344 80.332031c-49.316406 0-89.433594-40.117188-89.433594-89.433594 0-49.3125 40.117188-89.433594 89.433594-89.433594 49.3125 0 89.433594 40.121094 89.433594 89.433594 0 49.316406-40.121094 89.433594-89.433594 89.433594zm0 0" fill="#000000" style="fill: rgb(255, 255, 255);"></path><path d="m427.378906 377.566406h-19.8125v-19.808594c0-8.285156-6.71875-15-15-15-8.285156 0-15 6.714844-15 15v34.808594c0 8.285156 6.714844 15 15 15h34.8125c8.28125 0 15-6.714844 15-15 0-8.28125-6.71875-15-15-15zm0 0" fill="#000000" style="fill: rgb(255, 255, 255);"></path><path d="m194.308594 317.691406c-5.066406-5.0625-12.839844-5.738281-18.640625-2.050781-5.800781-3.691406-13.578125-3.011719-18.640625 2.050781-5.0625 5.066406-5.742188 12.839844-2.054688 18.640625-3.6875 5.800781-3.007812 13.578125 2.054688 18.640625 2.925781 2.929688 6.765625 4.394532 10.605468 4.394532 2.796876 0 5.589844-.789063 8.03125-2.34375 2.445313 1.558593 5.238282 2.34375 8.035157 2.34375 3.839843 0 7.679687-1.464844 10.609375-4.394532 5.0625-5.0625 5.738281-12.839844 2.050781-18.640625 3.6875-5.800781 3.011719-13.574219-2.050781-18.640625zm0 0" fill="#000000" style="fill: rgb(255, 255, 255);"></path></svg>