<svg width="32" height="32" viewBox="0 0 32 32" fill="none" xmlns="http://www.w3.org/2000/svg">
<path d="M16 28.8C19.3948 28.8 22.6505 27.4514 25.051 25.051C27.4514 22.6505 28.8 19.3948 28.8 16C28.8 12.6052 27.4514 9.3495 25.051 6.94903C22.6505 4.54857 19.3948 3.2 16 3.2C12.6052 3.2 9.3495 4.54857 6.94903 6.94903C4.54857 9.3495 3.2 12.6052 3.2 16C3.2 19.3948 4.54857 22.6505 6.94903 25.051C9.3495 27.4514 12.6052 28.8 16 28.8ZM16 32C7.1632 32 0 24.8368 0 16C0 7.1632 7.1632 0 16 0C24.8368 0 32 7.1632 32 16C32 24.8368 24.8368 32 16 32Z" fill="#5388FF"/>
<path d="M21.8304 15.0464C21.8496 12.6592 19.88 10.4704 17.44 10.168L17.28 10.144C17.1576 10.1198 17.0335 10.1059 16.9088 10.1024C16.408 10.1024 16.2752 10.464 16.24 10.68C16.22 10.7697 16.2182 10.8625 16.2347 10.9529C16.2512 11.0433 16.2856 11.1295 16.336 11.2064C16.5024 11.4384 16.7936 11.4784 17.0272 11.5136C17.0976 11.5221 17.16 11.5328 17.2144 11.5456C19.408 12.0496 20.1472 12.8448 20.5072 15.0896C20.5157 15.1461 20.5211 15.2112 20.5232 15.2848C20.5392 15.552 20.5728 16.1104 21.1552 16.1104C21.2032 16.1104 21.2544 16.1061 21.3088 16.0976C21.8512 16.0128 21.8336 15.5024 21.8256 15.2576C21.8223 15.1984 21.8223 15.1392 21.8256 15.08L21.8288 15.048L21.8304 15.0464Z" fill="#5388FF"/>
<path d="M16.768 9.29121C16.832 9.29601 16.896 9.30081 16.9456 9.30881C20.5456 9.88161 22.2032 11.6416 22.6624 15.3888C22.6688 15.4539 22.672 15.5285 22.672 15.6128C22.6768 15.9056 22.6864 16.5136 23.32 16.5264H23.3392C23.4262 16.5312 23.5132 16.5173 23.5944 16.4856C23.6756 16.4538 23.749 16.405 23.8096 16.3424C24.0064 16.1296 23.9936 15.8144 23.9824 15.5584C23.9781 15.4965 23.9765 15.4395 23.9776 15.3872C24.0224 11.5552 20.8096 8.08001 17.1008 7.95201L17.056 7.95361L17.0128 7.95681C16.9744 7.95681 16.9307 7.95468 16.8816 7.95041L16.6896 7.94081C16.0992 7.94081 15.9872 8.37281 15.9728 8.63201C15.9408 9.22881 16.4992 9.27201 16.768 9.29121ZM22.488 20.2304L22.2592 20.0464C21.8656 19.72 21.4464 19.4192 21.0432 19.128L20.7904 18.9456C20.272 18.5712 19.8064 18.3872 19.3664 18.3872C18.7744 18.3872 18.2576 18.7264 17.8304 19.3936C17.6437 19.6869 17.4101 19.8331 17.1296 19.832C16.933 19.8249 16.7403 19.7752 16.5648 19.6864C14.8928 18.9024 13.6976 17.7024 13.0144 16.1184C12.6848 15.3504 12.7904 14.8512 13.3728 14.4432C13.7024 14.2128 14.3168 13.7824 14.2736 12.9584C14.2256 12.0224 12.224 9.20641 11.3808 8.88641C11.021 8.75124 10.6246 8.7501 10.264 8.88321C9.296 9.21921 8.6 9.81121 8.2528 10.5904C7.9168 11.3456 7.9328 12.2304 8.2976 13.152C9.3488 15.8176 10.8256 18.1408 12.6912 20.0576C14.5152 21.9344 16.7584 23.4704 19.3568 24.6256C19.5904 24.7296 19.8368 24.7856 20.016 24.8272L20.168 24.8656C20.1889 24.871 20.2104 24.8742 20.232 24.8752H20.2528C21.4752 24.8752 22.9424 23.7232 23.3936 22.408C23.7888 21.256 23.0672 20.688 22.488 20.232V20.2304ZM17.3088 12.336C17.1008 12.3408 16.664 12.352 16.5104 12.8096C16.44 13.0251 16.4485 13.2091 16.536 13.3616C16.6656 13.5856 16.9152 13.6544 17.1408 13.6912C17.96 13.8272 18.3824 14.296 18.4656 15.1632C18.5056 15.5696 18.7696 15.8512 19.1088 15.8512L19.1856 15.848C19.5941 15.7957 19.7899 15.4891 19.7728 14.928C19.7792 14.3424 19.4832 13.68 18.9792 13.152C18.4736 12.6208 17.864 12.3216 17.3088 12.336Z" fill="#5388FF"/>
</svg>
