<svg width="32" height="32" viewBox="0 0 32 32" fill="none" xmlns="http://www.w3.org/2000/svg">
<path d="M5.33333 26.6667H8V13.3333C8 12.9797 8.14047 12.6406 8.39052 12.3905C8.64057 12.1405 8.97971 12 9.33333 12H25.3333V9.33334C25.3333 8.97972 25.1929 8.64058 24.9428 8.39053C24.6928 8.14048 24.3536 8.00001 24 8.00001H19.932C19.596 5.00801 17.08 2.66667 14 2.66667C10.92 2.66667 8.404 5.00801 8.068 8.00001H4C3.64638 8.00001 3.30724 8.14048 3.05719 8.39053C2.80714 8.64058 2.66666 8.97972 2.66666 9.33334V24C2.66666 24.7072 2.94762 25.3855 3.44771 25.8856C3.94781 26.3857 4.62609 26.6667 5.33333 26.6667ZM14 5.33334C15.6093 5.33334 16.9573 6.48001 17.2667 8.00001H10.7333C11.0427 6.48001 12.3907 5.33334 14 5.33334Z" fill="#D99B3F"/>
<path d="M28 14.6667H12C11.6464 14.6667 11.3072 14.8071 11.0572 15.0572C10.8071 15.3072 10.6667 15.6464 10.6667 16V26.6667C10.6667 27.3739 10.9476 28.0522 11.4477 28.5523C11.9478 29.0524 12.6261 29.3333 13.3333 29.3333H26.6667C27.3739 29.3333 28.0522 29.0524 28.5523 28.5523C29.0524 28.0522 29.3333 27.3739 29.3333 26.6667V16C29.3333 15.6464 29.1929 15.3072 28.9428 15.0572C28.6928 14.8071 28.3536 14.6667 28 14.6667ZM20 24C16.324 24 13.3333 21.0093 13.3333 17.3333H16C16 19.5387 17.7947 21.3333 20 21.3333C22.2053 21.3333 24 19.5387 24 17.3333H26.6667C26.6667 21.0093 23.676 24 20 24Z" fill="#D99B3F"/>
</svg>
