<svg width="32" height="32" viewBox="0 0 32 32" fill="none" xmlns="http://www.w3.org/2000/svg">
<path d="M8.63475 4.97269C6.68775 4.98407 4.93475 5.73413 3.53125 8.07619C4.439 8.54138 5.1525 9.35707 5.69338 10.3711C7.14288 9.15544 8.647 8.78219 10.0899 8.74407C10.1596 8.74219 10.2294 8.74057 10.2988 8.74019C10.7851 8.73769 11.2638 8.7705 11.7305 8.82019L11.6055 9.98238C9.69888 9.77913 8.01319 9.78438 6.19738 11.4843C6.40313 12.0249 6.57488 12.6057 6.72075 13.2168C7.633 12.6538 8.56431 12.4558 9.47475 12.4511C9.5495 12.4507 9.62488 12.4509 9.69938 12.453C10.4141 12.4736 11.1134 12.6068 11.7775 12.7714L11.4963 13.9042C9.86713 13.5004 8.475 13.3048 6.97281 14.4608C7.04457 14.8823 7.10513 15.3056 7.15444 15.7303C7.17894 15.9427 7.199 16.1569 7.21881 16.3728C7.7885 16.1353 8.36569 16.0268 8.92975 16.0174C9.05194 16.0155 9.17413 16.0185 9.295 16.0253C10.2613 16.0794 11.1778 16.3825 12.0606 16.7245L11.6388 17.8143C10.7963 17.4881 9.9895 17.2339 9.2305 17.1914C8.57363 17.1545 7.95531 17.2586 7.30863 17.623C7.35138 18.4782 7.361 19.3493 7.33988 20.2205C8.3515 20.2655 9.441 20.2251 10.4824 20.0995L10.7949 20.0624L10.998 20.3026C12.1484 21.6689 12.8939 23.7676 13.0019 26.6776C13.6824 26.5881 14.358 26.4439 15.0372 26.2167C13.4632 19.8371 12.9111 13.3904 15.0157 6.93338C13.0655 5.91475 10.8484 5.01088 8.82425 4.97444C8.76113 4.97332 8.69763 4.97213 8.63488 4.97257L8.63475 4.97269ZM22.3789 5.98044C21.3951 5.98269 20.4539 6.15619 19.6816 6.47657C18.6262 6.91444 17.9204 7.58969 17.6835 8.46875C19.1659 14.8694 18.5387 19.7158 17.7207 26.1778C18.0744 26.2803 18.5169 26.3706 19.0176 26.4493C19.2676 23.4268 20.6691 21.0625 22.5001 19.709L22.7696 19.5098L23.0782 19.6426C23.601 19.8669 24.2986 20.0274 25.0919 20.1251C25.0626 19.7882 25.0385 19.4509 25.0196 19.1133C23.5967 18.0176 21.7838 18.0507 20.1504 18.5391L19.8164 17.42C20.5229 17.2088 21.2878 17.0689 22.0646 17.0528C23.0488 17.0321 24.0521 17.2129 24.9766 17.7031C24.9756 17.2677 24.986 16.842 25.0118 16.4297C25.0297 16.1416 25.0559 15.8606 25.0879 15.5859C23.6737 14.2941 22.2642 14.3791 20.5997 14.6543L20.4103 13.5018C20.8602 13.4274 21.3237 13.3683 21.795 13.3476C21.8833 13.3437 21.9718 13.3408 22.0606 13.3398C23.1494 13.3274 24.2666 13.5441 25.3164 14.2773C25.4726 13.6435 25.6914 13.0696 25.9961 12.5761C24.3453 10.8186 22.6853 10.6831 20.7988 10.7343L20.7676 9.56825C20.9017 9.56463 21.0361 9.56288 21.1719 9.56238C21.3078 9.56188 21.4451 9.56257 21.5821 9.56632C23.3071 9.61344 25.1259 10.0242 26.7618 11.6893C27.4108 11.1701 28.2698 10.9231 29.2618 11.0194C29.0262 9.63394 28.3793 8.57957 27.4903 7.78319C26.4478 6.84932 25.0574 6.28038 23.6388 6.07219C23.2216 6.01061 22.8005 5.97998 22.3789 5.98044ZM4.03906 20.8419C2.52531 22.0763 1.3375 24.2056 1.23044 27.0098C3.35631 27.7565 6.4165 28.0106 11.834 26.9394C11.7649 24.2809 11.1429 22.4438 10.2832 21.2931C8.04781 21.5298 5.71569 21.4464 4.03913 20.8418L4.03906 20.8419ZM22.9649 20.8419C21.4517 22.0764 20.2633 24.2063 20.1562 27.0098C22.2819 27.7566 25.3429 28.0103 30.7598 26.9394C30.6907 24.2807 30.0689 22.4438 29.209 21.2931C26.9741 21.5295 24.641 21.4462 22.9649 20.8418V20.8419Z" fill="#D99B3F"/>
</svg>
