<svg width="32" height="32" viewBox="0 0 32 32" fill="none" xmlns="http://www.w3.org/2000/svg">
<path d="M16 22.3067C17.3929 22.3067 18.5702 21.8262 19.532 20.8653C20.4938 19.9044 20.9747 18.7271 20.9747 17.3333C20.9747 15.9396 20.4938 14.7622 19.532 13.8013C18.5702 12.8404 17.3929 12.3596 16 12.3587C14.6071 12.3578 13.4298 12.8387 12.468 13.8013C11.5062 14.764 11.0253 15.9413 11.0253 17.3333C11.0253 18.7253 11.5062 19.9027 12.468 20.8653C13.4298 21.828 14.6071 22.3089 16 22.308M16 20.9747C14.9644 20.9747 14.0987 20.6267 13.4027 19.9307C12.7067 19.2347 12.3587 18.3689 12.3587 17.3333C12.3587 16.2978 12.7067 15.432 13.4027 14.736C14.0987 14.04 14.9644 13.692 16 13.692C17.0356 13.692 17.9013 14.04 18.5973 14.736C19.2933 15.432 19.6413 16.2978 19.6413 17.3333C19.6413 18.3689 19.2933 19.2347 18.5973 19.9307C17.9013 20.6267 17.0356 20.9747 16 20.9747ZM6.15467 26.6667C5.54044 26.6667 5.028 26.4613 4.61733 26.0507C4.20667 25.64 4.00089 25.1271 4 24.512V10.1547C4 9.54044 4.20578 9.02799 4.61733 8.61733C5.02889 8.20666 5.54089 8.00088 6.15333 7.99999H10.0973L11.9187 6.01999C12.1116 5.80488 12.3458 5.63644 12.6213 5.51466C12.8978 5.39377 13.1907 5.33333 13.5 5.33333H18.5C18.8093 5.33333 19.1022 5.39422 19.3787 5.516C19.6542 5.63688 19.8884 5.80533 20.0813 6.02133L21.904 7.99999H25.848C26.4613 7.99999 26.9738 8.20577 27.3853 8.61733C27.7969 9.02888 28.0018 9.54133 28 10.1547V24.5133C28 25.1267 27.7947 25.6391 27.384 26.0507C26.9733 26.4622 26.4609 26.6676 25.8467 26.6667H6.15467ZM16 25.3333H25.8467C26.0858 25.3333 26.2822 25.2564 26.436 25.1027C26.5898 24.9489 26.6667 24.7524 26.6667 24.5133V10.1533C26.6667 9.91422 26.5898 9.71777 26.436 9.56399C26.2822 9.41022 26.0858 9.33333 25.8467 9.33333H21.3173L18.8587 6.66666H16V25.3333Z" fill="#D99B3F"/>
</svg>
