<svg width="32" height="32" viewBox="0 0 32 32" fill="none" xmlns="http://www.w3.org/2000/svg">
<path d="M25.3333 16V26.6667H18C17.6318 26.6667 17.3333 26.9651 17.3333 27.3333C17.3333 27.7015 17.6319 28 18 28H26.6667V18.6667H28V29.3333H17.2626C16.5653 29.3333 16 28.7593 16 28.0513V17.2821C16 16.5739 16.5653 16 17.2626 16H25.3333ZM21.6667 21.3333H19.6667L19.6696 25.3424L21.6667 25.3333V21.3333ZM24 4V14.6666H17.3333C15.8753 14.6666 14.6906 15.8368 14.6671 17.2892L14.6667 17.3333H6.66669V22.6667L14.6666 22.6666V25.3333H4V10L12 14.6667V10L20 14.6667V4H24ZM20.6667 17.4667C20.0039 17.4667 19.4667 18.0039 19.4667 18.6667C19.4667 19.3294 20.0039 19.8667 20.6667 19.8667C21.3294 19.8667 21.8667 19.3294 21.8667 18.6667C21.8667 18.0039 21.3294 17.4667 20.6667 17.4667Z" fill="#D99B3F"/>
</svg>
