<svg width="32" height="32" viewBox="0 0 32 32" fill="none" xmlns="http://www.w3.org/2000/svg">
<path d="M29.9 16.4L23.9 28.4C23.7 28.7 23.4 29 23 29H10C9.4 29 9 28.6 9 28C9 27.4 9.4 27 10 27H22.4L27.9 16L22.4 5H10C9.4 5 9 4.6 9 4C9 3.4 9.4 3 10 3H23C23.4 3 23.7 3.2 23.9 3.6L29.9 15.6C30 15.9 30 16.2 29.9 16.5V16.4ZM10 22C10 22.6 10.4 23 11 23H22V21H11C10.4 21 10 21.4 10 22ZM18 15H7C6.4 15 6 15.4 6 16C6 16.6 6.4 17 7 17H18V15ZM22 11V9H11C10.4 9 10 9.4 10 10C10 10.6 10.4 11 11 11H22ZM3 15C2.4 15 2 15.4 2 16C2 16.6 2.4 17 3 17C3.6 17 4 16.6 4 16C4 15.4 3.6 15 3 15ZM6 21C5.4 21 5 21.4 5 22C5 22.6 5.4 23 6 23C6.6 23 7 22.6 7 22C7 21.4 6.6 21 6 21ZM6 11C6.6 11 7 10.6 7 10C7 9.4 6.6 9 6 9C5.4 9 5 9.4 5 10C5 10.6 5.4 11 6 11Z" fill="#D99B3F"/>
</svg>
