<svg width="32" height="32" viewBox="0 0 32 32" fill="none" xmlns="http://www.w3.org/2000/svg">
<path d="M26.3333 2.66667C27.129 2.66667 27.892 2.98274 28.4546 3.54535C29.0173 4.10796 29.3333 4.87102 29.3333 5.66667V12.9493C29.3333 14.0986 28.8767 15.2007 28.064 16.0133L28.0293 16.048C26.3721 14.9785 24.3996 14.5063 22.4377 14.7094C20.4758 14.9125 18.6418 15.7787 17.2388 17.165C15.8357 18.5513 14.9475 20.3747 14.7208 22.334C14.4941 24.2933 14.9425 26.2713 15.992 27.9413C15.16 28.4696 14.173 28.699 13.1933 28.5919C12.2136 28.4848 11.2996 28.0475 10.6013 27.352L4.65199 21.4133C3.83871 20.6014 3.38125 19.4997 3.38025 18.3504C3.37925 17.2012 3.83479 16.0987 4.64666 15.2853L15.98 3.93867C16.3826 3.53572 16.8606 3.21608 17.3868 2.99805C17.913 2.78002 18.4771 2.66786 19.0467 2.668L26.3333 2.66667ZM22.6667 7.33601C22.404 7.33601 22.1439 7.38774 21.9013 7.48825C21.6586 7.58876 21.4382 7.73607 21.2524 7.92179C21.0667 8.10751 20.9194 8.32799 20.8189 8.57064C20.7184 8.81329 20.6667 9.07336 20.6667 9.33601C20.6667 9.59865 20.7184 9.85872 20.8189 10.1014C20.9194 10.344 21.0667 10.5645 21.2524 10.7502C21.4382 10.9359 21.6586 11.0833 21.9013 11.1838C22.1439 11.2843 22.404 11.336 22.6667 11.336C23.1971 11.336 23.7058 11.1253 24.0809 10.7502C24.4559 10.3751 24.6667 9.86644 24.6667 9.33601C24.6667 8.80557 24.4559 8.29686 24.0809 7.92179C23.7058 7.54672 23.1971 7.33601 22.6667 7.33601ZM30.6667 23.3333C30.6667 21.3884 29.894 19.5232 28.5188 18.1479C27.1435 16.7726 25.2782 16 23.3333 16C21.3884 16 19.5231 16.7726 18.1479 18.1479C16.7726 19.5232 16 21.3884 16 23.3333C16 25.2783 16.7726 27.1435 18.1479 28.5188C19.5231 29.8941 21.3884 30.6667 23.3333 30.6667C25.2782 30.6667 27.1435 29.8941 28.5188 28.5188C29.894 27.1435 30.6667 25.2783 30.6667 23.3333ZM22.5 27.34C22.5 27.119 22.5878 26.907 22.7441 26.7508C22.9004 26.5945 23.1123 26.5067 23.3333 26.5067C23.5543 26.5067 23.7663 26.5945 23.9226 26.7508C24.0789 26.907 24.1667 27.119 24.1667 27.34C24.1667 27.561 24.0789 27.773 23.9226 27.9293C23.7663 28.0855 23.5543 28.1733 23.3333 28.1733C23.1123 28.1733 22.9004 28.0855 22.7441 27.9293C22.5878 27.773 22.5 27.561 22.5 27.34ZM20.8613 21.276C20.848 19.76 21.936 18.6707 23.3333 18.6707C24.7067 18.6707 25.804 19.7987 25.804 21.2707C25.804 22.0253 25.5573 22.488 24.92 23.2L24.5653 23.5867L24.432 23.7413C24.1013 24.1307 24 24.3573 24 24.668C24 24.8448 23.9298 25.0144 23.8047 25.1394C23.6797 25.2644 23.5101 25.3347 23.3333 25.3347C23.1565 25.3347 22.9869 25.2644 22.8619 25.1394C22.7369 25.0144 22.6667 24.8448 22.6667 24.668C22.6667 23.9 22.916 23.4333 23.56 22.7107L23.9147 22.324L24.048 22.1733C24.3707 21.792 24.4707 21.5693 24.4707 21.2707C24.4707 20.5267 23.964 20.004 23.3333 20.004C22.6747 20.004 22.1867 20.492 22.1947 21.264C22.1964 21.4408 22.1279 21.6111 22.0041 21.7374C21.8803 21.8636 21.7115 21.9356 21.5347 21.9373C21.3578 21.9391 21.1876 21.8706 21.0613 21.7468C20.935 21.623 20.8631 21.4542 20.8613 21.2773" fill="#D99B3F"/>
</svg>
