<svg width="32" height="32" viewBox="0 0 32 32" fill="none" xmlns="http://www.w3.org/2000/svg">
<path d="M22.5 12C23.163 12 23.7989 11.7366 24.2678 11.2678C24.7366 10.7989 25 10.163 25 9.5C25 8.83696 24.7366 8.20107 24.2678 7.73223C23.7989 7.26339 23.163 7 22.5 7C21.837 7 21.2011 7.26339 20.7322 7.73223C20.2634 8.20107 20 8.83696 20 9.5C20 10.163 20.2634 10.7989 20.7322 11.2678C21.2011 11.7366 21.837 12 22.5 12ZM18.684 3C17.6694 3.00018 16.6929 3.38588 15.952 4.079L3.77 15.474C3.3536 15.8635 3.01982 16.3328 2.78855 16.854C2.55728 17.3751 2.43324 17.9375 2.42381 18.5076C2.41439 19.0777 2.51978 19.6438 2.7337 20.1724C2.94762 20.7009 3.2657 21.181 3.669 21.584L9.995 27.909C10.7537 28.6674 11.7711 29.1109 12.8432 29.1504C13.9152 29.1899 14.9625 28.8225 15.775 28.122C15.4092 27.5113 15.1172 26.8595 14.905 26.18L14.591 26.495C14.3821 26.7039 14.134 26.8697 13.861 26.9827C13.5881 27.0958 13.2955 27.154 13 27.154C12.7045 27.154 12.4119 27.0958 12.139 26.9827C11.866 26.8697 11.6179 26.7039 11.409 26.495L5.083 20.169C4.86963 19.9556 4.70137 19.7015 4.58822 19.4217C4.47508 19.1419 4.41937 18.8423 4.42441 18.5406C4.42945 18.2388 4.49513 17.9412 4.61755 17.6654C4.73997 17.3895 4.91662 17.1412 5.137 16.935L17.317 5.539C17.688 5.19215 18.1771 4.99945 18.685 5H25.5C25.8978 5 26.2794 5.15804 26.5607 5.43934C26.842 5.72064 27 6.10218 27 6.5V13.257C27.0001 13.5198 26.9484 13.78 26.8478 14.0228C26.7473 14.2656 26.5998 14.4862 26.414 14.672L26.18 14.906C26.8557 15.117 27.5042 15.407 28.112 15.77C28.6866 15.0585 29 14.1716 29 13.257V6.5C29 5.57174 28.6313 4.6815 27.9749 4.02513C27.3185 3.36875 26.4283 3 25.5 3H18.684ZM16 23.5C16 24.4849 16.194 25.4602 16.5709 26.3701C16.9478 27.2801 17.5003 28.1069 18.1967 28.8033C18.8931 29.4997 19.7199 30.0522 20.6299 30.4291C21.5398 30.806 22.5151 31 23.5 31C24.4849 31 25.4602 30.806 26.3701 30.4291C27.2801 30.0522 28.1069 29.4997 28.8033 28.8033C29.4997 28.1069 30.0522 27.2801 30.4291 26.3701C30.806 25.4602 31 24.4849 31 23.5C31 21.5109 30.2098 19.6032 28.8033 18.1967C27.3968 16.7902 25.4891 16 23.5 16C21.5109 16 19.6032 16.7902 18.1967 18.1967C16.7902 19.6032 16 21.5109 16 23.5ZM22.477 27.932C22.477 27.6607 22.5848 27.4005 22.7766 27.2086C22.9685 27.0168 23.2287 26.909 23.5 26.909C23.7713 26.909 24.0315 27.0168 24.2234 27.2086C24.4152 27.4005 24.523 27.6607 24.523 27.932C24.523 28.2033 24.4152 28.4635 24.2234 28.6554C24.0315 28.8472 23.7713 28.955 23.5 28.955C23.2287 28.955 22.9685 28.8472 22.7766 28.6554C22.5848 28.4635 22.477 28.2033 22.477 27.932ZM20.773 21.455C20.773 20.7318 21.0603 20.0381 21.5717 19.5267C22.0831 19.0153 22.7768 18.728 23.5 18.728C24.2232 18.728 24.9169 19.0153 25.4283 19.5267C25.9397 20.0381 26.227 20.7318 26.227 21.455C26.227 22.451 25.939 23.009 25.199 23.784L24.839 24.151L24.681 24.321C24.294 24.755 24.181 25.041 24.181 25.545C24.1845 25.6367 24.1695 25.7281 24.1368 25.8139C24.1042 25.8996 24.0545 25.9779 23.9909 26.044C23.9273 26.1101 23.8509 26.1627 23.7665 26.1987C23.6821 26.2346 23.5913 26.2531 23.4995 26.2531C23.4077 26.2531 23.3169 26.2346 23.2325 26.1987C23.1481 26.1627 23.0717 26.1101 23.0081 26.044C22.9445 25.9779 22.8948 25.8996 22.8622 25.8139C22.8295 25.7281 22.8145 25.6367 22.818 25.545C22.818 24.549 23.107 23.991 23.846 23.216L24.206 22.849L24.365 22.679C24.751 22.245 24.864 21.959 24.864 21.455C24.864 21.0932 24.7203 20.7463 24.4645 20.4905C24.2087 20.2347 23.8618 20.091 23.5 20.091C23.1382 20.091 22.7913 20.2347 22.5355 20.4905C22.2797 20.7463 22.136 21.0932 22.136 21.455C22.1292 21.6312 22.0545 21.798 21.9274 21.9203C21.8004 22.0426 21.6309 22.1109 21.4545 22.1109C21.2781 22.1109 21.1086 22.0426 20.9816 21.9203C20.8545 21.798 20.7798 21.6312 20.773 21.455Z" fill="#D99B3F"/>
</svg>
