<svg width="32" height="32" viewBox="0 0 32 32" fill="none" xmlns="http://www.w3.org/2000/svg">
<path d="M25.468 24H10.6173C6.70533 24 4.75067 24 3.55733 22.5107C1.29467 19.684 3.87333 12.164 5.43467 9.33333C5.964 12.5333 11.416 12.444 13.4013 12C12.0787 9.33467 13.844 8.44533 14.7267 8H14.7293C18.6667 12.6667 27.0867 15.2053 29.1493 20.292C30.0413 22.4893 27.5 24 25.468 24Z" stroke="#D99B3F" stroke-width="2" stroke-linecap="round" stroke-linejoin="round"/>
<path d="M2.66667 18.6667C8.22 20.5733 11.6413 21.1253 16.0293 19.7387C17.3587 19.3187 18.0227 19.108 18.4373 19.136C18.8507 19.1653 19.6973 19.5587 21.388 20.348C23.4987 21.332 26.396 21.8987 29.3333 20.4773M18 12.6667L20 10.6667M20.6667 14.6667L22.6667 12.6667" stroke="#D99B3F" stroke-width="2" stroke-linecap="round" stroke-linejoin="round"/>
</svg>
