<svg width="32" height="32" viewBox="0 0 32 32" fill="none" xmlns="http://www.w3.org/2000/svg">
<path d="M15.7312 5.43876C14.9937 5.43251 14.3375 5.54438 13.8375 5.73126C13.2187 5.96376 12.9187 6.27501 12.8625 6.53751C13.1875 6.78126 13.4562 7.06876 13.6312 7.40626C13.6125 7.33751 13.6062 7.26876 13.6125 7.20001C13.7 6.57501 14.8937 6.22313 16.2875 6.41251C17.675 6.60626 18.7312 7.26251 18.65 7.88751C18.625 8.09376 18.475 8.28126 18.2125 8.42501C18.4312 8.37501 18.6312 8.31876 18.8062 8.25001C19.4687 8.00001 19.7625 7.66251 19.7937 7.38751C19.825 7.11251 19.6187 6.71876 19.025 6.32501C18.4375 5.93376 17.5312 5.60438 16.4937 5.48563C16.2375 5.45563 15.9812 5.44063 15.7312 5.43876ZM9.5 6.71876C8.54375 6.71876 7.68125 6.94376 7.1 7.26251C6.525 7.58126 6.2875 7.93751 6.2875 8.23751C6.2875 8.53751 6.525 8.89376 7.1 9.21251C7.20625 9.26876 7.31875 9.32501 7.4375 9.37501C7.125 9.18126 6.95625 8.94376 6.95625 8.70626C6.95625 8.07501 8.09375 7.56251 9.5 7.56251C10.9062 7.56251 12.0437 8.07501 12.0437 8.70626C12.0437 8.94376 11.8812 9.18126 11.5687 9.37501C11.6875 9.32501 11.8 9.26876 11.9 9.21251C12.475 8.89376 12.7125 8.53751 12.7125 8.23751C12.7125 7.93751 12.475 7.58126 11.9 7.26251C11.3187 6.94376 10.4562 6.71876 9.5 6.71876ZM13.675 8.98126C13.6125 9.11876 13.5312 9.25626 13.4312 9.38126C13.3687 9.95626 13.275 10.4938 13.2187 11.0125C14.2125 11.675 15.5437 11.9188 16.75 11.85C17.425 11.8063 18.05 11.6688 18.5187 11.4875C18.7625 11.3875 18.9562 11.275 19.0937 11.1688C17.7437 11.375 16.4125 10.875 15.5687 10.4938C15.5625 10.4938 15.5562 10.4875 15.5562 10.4875C15.5625 10.4875 15.5625 10.4938 15.5687 10.4938C15.7625 10.5375 17.9437 10.2625 18.9625 10.0125C18.95 9.80001 18.95 9.59376 18.9625 9.38751C18.125 9.65626 17.1062 9.73751 16.0187 9.61251C15.15 9.51876 14.35 9.29376 13.675 8.98126ZM6.54375 10.1938C6.575 10.5 6.59375 10.825 6.6 11.15C7.30625 11.475 8.2 11.6813 9.06875 11.9125C8.2625 11.9375 7.575 12.0563 6.5625 11.9C6.54375 12.0813 6.51875 12.2688 6.48125 12.45C8.46875 13.225 10.3187 13.0688 12.1312 12.6125C11.975 11.8063 12.0375 11.0563 12.1375 10.3563C11.3937 10.6938 10.4875 10.8813 9.5 10.8813C8.375 10.8813 7.35 10.6375 6.55625 10.2C6.55 10.2 6.55 10.1938 6.54375 10.1938ZM22.1875 11.6375C22.0812 11.6375 21.9937 11.6438 21.925 11.6563C20.2437 12.2813 18.8062 13.1375 17.8375 14.3063C16.95 15.375 16.4312 16.7125 16.4687 18.475C17.2312 18.5125 18.075 18.6938 18.8062 19.05C19.075 17.05 19.825 15.5438 20.875 14.4313C21.8125 13.4313 22.9687 12.7625 24.1875 12.275C23.9687 12.1563 23.7437 12.0375 23.5 11.9438C23.025 11.75 22.525 11.65 22.1875 11.6375ZM13.2187 12.325C13.275 12.6938 13.4625 13.0875 13.5125 13.4C13.7062 14.0188 13.9312 14.65 14.1562 15.2813C14.4437 15.4188 14.6625 15.5313 14.925 15.675C15.175 16.1063 15.35 16.6125 15.4375 17.0375C15.65 15.6813 16.1875 14.5313 16.9687 13.5875C17.175 13.3375 17.4 13.1 17.6375 12.8813C17.375 12.925 17.1 12.9563 16.8125 12.975C15.65 13.0438 14.35 12.8813 13.2187 12.325ZM24.5937 13.3188C23.4937 13.7563 22.4875 14.3563 21.6937 15.2C20.8437 16.1 20.2125 17.2813 19.95 18.95C22.025 19.5438 24.0562 20.0125 25.7437 20.325C26.8562 20.5313 28.2187 20.725 29.2062 20.6188C29.6937 20.5688 30.075 20.4438 30.2875 20.2813C30.5 20.125 30.5937 19.9688 30.5875 19.575C30.55 18.275 29.9125 17.125 28.8125 16.0625C27.75 15.0313 26.2625 14.1188 24.5937 13.3188ZM6.2875 13.5875C6.07875 13.8063 5.87437 14.025 5.67375 14.2563C6.38125 14.1313 7.16875 14.0688 7.9875 14.0625H8.35C7.675 13.9938 6.9875 13.8438 6.2875 13.5875ZM12.4312 13.7C11.475 13.9375 10.4687 14.1125 9.425 14.1188C10.55 14.2125 11.7 14.4188 12.775 14.7563C12.6562 14.4063 12.5437 14.05 12.4312 13.7ZM7.9875 15.1875C6.93125 15.1938 5.94687 15.3063 5.1775 15.5188C4.40875 15.7313 3.875 16.0563 3.67125 16.325L3.64937 16.3563L3.62437 16.3813C3.3275 16.6875 3.09187 17.1188 2.9175 17.5688C4.36562 16.8625 6.30625 16.55 8.30625 16.6125C10.4687 16.675 12.7 17.2 14.3937 18.3625C14.3625 17.675 14.3312 17.0438 14.0812 16.5063C12.3875 15.625 10.0437 15.1875 7.9875 15.1875ZM7.8125 17.725C5.51437 17.7438 3.355 18.375 2.40312 19.2438C2.10875 19.8438 1.845 20.45 1.61625 21.05C1.11562 22.3563 1.5575 23.4563 2.61687 24.4375C3.67625 25.4188 5.37062 26.1688 7.1375 26.4438C8.90625 26.7188 10.7375 26.5188 12.0875 25.75C13.4375 24.975 14.3625 23.6813 14.4375 21.4875C14.4562 20.8938 14.4 20.2875 14.2875 19.6813C12.8187 18.4375 10.525 17.8 8.275 17.7313C8.11875 17.725 7.96875 17.725 7.8125 17.725Z" fill="#D99B3F"/>
</svg>
