<svg width="32" height="32" viewBox="0 0 32 32" fill="none" xmlns="http://www.w3.org/2000/svg">
<path d="M8.85 23H4C3.73478 23 3.48043 22.8946 3.29289 22.7071C3.10536 22.5196 3 22.2652 3 22C3 21.7348 3.10536 21.4804 3.29289 21.2929C3.48043 21.1054 3.73478 21 4 21H8.85C9.11522 21 9.36957 21.1054 9.55711 21.2929C9.74464 21.4804 9.85 21.7348 9.85 22C9.85 22.2652 9.74464 22.5196 9.55711 22.7071C9.36957 22.8946 9.11522 23 8.85 23ZM12.85 25H6C5.73478 25 5.48043 25.1054 5.29289 25.2929C5.10536 25.4804 5 25.7348 5 26C5 26.2652 5.10536 26.5196 5.29289 26.7071C5.48043 26.8946 5.73478 27 6 27H12.85C13.1152 27 13.3696 26.8946 13.5571 26.7071C13.7446 26.5196 13.85 26.2652 13.85 26C13.85 25.7348 13.7446 25.4804 13.5571 25.2929C13.3696 25.1054 13.1152 25 12.85 25ZM28.895 20.8288L25.3162 19.04C24.3174 18.5446 23.4772 17.7794 22.8911 16.8309C22.305 15.8824 21.9963 14.7887 22 13.6737V10C22 9.73629 21.8959 9.48326 21.7102 9.29597C21.5246 9.10868 21.2724 9.00231 21.0088 9C19.418 9.00067 17.8919 8.37022 16.7654 7.247C15.6389 6.12378 15.004 4.59954 15 3.00875C15.0015 2.82197 14.9506 2.63852 14.8531 2.47918C14.7557 2.31983 14.6156 2.19096 14.4486 2.10717C14.2817 2.02338 14.0946 1.98802 13.9086 2.00509C13.7226 2.02215 13.5451 2.09098 13.3962 2.20375L5.63875 8.085C5.58218 8.12817 5.53548 8.18292 5.50176 8.24559C5.46805 8.30826 5.4481 8.3774 5.44325 8.44839C5.43839 8.51939 5.44875 8.5906 5.47363 8.65727C5.49851 8.72394 5.53733 8.78454 5.5875 8.835L12.0175 15.265C12.2019 15.4444 12.312 15.6866 12.3259 15.9435C12.3398 16.2003 12.2564 16.453 12.0925 16.6513C12.0027 16.7553 11.8924 16.8397 11.7684 16.8992C11.6445 16.9587 11.5097 16.992 11.3723 16.997C11.235 17.002 11.0981 16.9787 10.9701 16.9285C10.8422 16.8782 10.726 16.8022 10.6287 16.705L4.00375 10.08C3.94732 10.0233 3.87811 9.98101 3.80194 9.95661C3.72576 9.93222 3.64485 9.92645 3.56599 9.9398C3.48713 9.95314 3.41262 9.98522 3.34872 10.0333C3.28482 10.0814 3.23339 10.1442 3.19875 10.2163C3.02013 10.5896 2.96172 11.0091 3.03157 11.417C3.10142 11.8249 3.2961 12.2011 3.58875 12.4937L17.8 26.7075C17.8929 26.8003 18.0033 26.8739 18.1247 26.9241C18.246 26.9743 18.3761 27.0001 18.5075 27H28C28.5304 27 29.0391 26.7893 29.4142 26.4142C29.7893 26.0391 30 25.5304 30 25V22.6175C30.0012 22.2459 29.8983 21.8814 29.703 21.5653C29.5077 21.2491 29.2278 20.994 28.895 20.8288Z" fill="#D99B3F"/>
</svg>
