<svg width="32" height="32" viewBox="0 0 32 32" fill="none" xmlns="http://www.w3.org/2000/svg">
<path d="M28.5812 16.1388L25.0737 14.97C24.9673 14.9329 24.8515 14.9329 24.745 14.97L19.3412 16.935C19.2321 16.9762 19.1166 16.9982 19 17C18.781 16.9999 18.5682 16.9279 18.3941 16.7952C18.22 16.6624 18.0943 16.4761 18.0362 16.265C17.9731 16.0174 18.0051 15.7551 18.1259 15.53C18.2467 15.3048 18.4476 15.1331 18.6887 15.0488L21 14.2088C21.0621 14.1864 21.1157 14.1452 21.1533 14.091C21.1909 14.0367 21.2107 13.9721 21.2098 13.9061C21.209 13.8401 21.1876 13.776 21.1487 13.7227C21.1097 13.6694 21.0551 13.6296 20.9925 13.6088C20.5827 13.4721 20.2074 13.2482 19.8925 12.9525C19.8252 12.8863 19.7406 12.8404 19.6483 12.8203C19.5561 12.8002 19.46 12.8066 19.3713 12.8388L16.3438 13.9388C16.2141 13.9858 16.0761 14.0055 15.9384 13.9967C15.8008 13.9878 15.6665 13.9506 15.5439 13.8873C15.4213 13.824 15.3132 13.7361 15.2262 13.629C15.1393 13.5219 15.0755 13.398 15.0387 13.265C14.9756 13.0174 15.0076 12.7551 15.1284 12.53C15.2492 12.3048 15.4501 12.1331 15.6912 12.0488L18.25 11.1163C18.314 11.093 18.3726 11.057 18.4222 11.0103C18.4718 10.9636 18.5113 10.9073 18.5383 10.8448C18.5653 10.7823 18.5793 10.7149 18.5794 10.6468C18.5795 10.5787 18.5656 10.5113 18.5387 10.4488L18.1562 9.55375C18.1061 9.43599 18.0126 9.34196 17.8952 9.29103C17.7778 9.24011 17.6453 9.23616 17.525 9.28L14.3375 10.4388C14.2078 10.4858 14.0698 10.5055 13.9322 10.4967C13.7945 10.4878 13.6602 10.4506 13.5376 10.3873C13.4151 10.324 13.3069 10.2361 13.22 10.129C13.1331 10.0219 13.0692 9.89796 13.0325 9.76501C12.9694 9.5174 13.0014 9.25513 13.1222 9.02997C13.243 8.8048 13.4438 8.6331 13.685 8.54875L16.685 7.4575C16.7489 7.43426 16.8073 7.39823 16.8568 7.35164C16.9062 7.30505 16.9457 7.24886 16.9727 7.1865C16.9997 7.12415 17.0138 7.05694 17.0139 6.98899C17.0141 6.92103 17.0004 6.85375 16.9737 6.79126L16.2987 5.2V5.1875C16.0922 4.72412 15.7172 4.35657 15.2497 4.15929C14.7823 3.96202 14.2574 3.94976 13.7812 4.125L4.31625 7.56126C3.93091 7.70239 3.59813 7.9583 3.36276 8.29446C3.1274 8.63063 3.00079 9.03089 3 9.44125V24C3 24.5304 3.21071 25.0391 3.58579 25.4142C3.96086 25.7893 4.46957 26 5 26H30C30.5304 26 31.0391 25.7893 31.4142 25.4142C31.7893 25.0391 32 24.5304 32 24V20.8825C32.0001 19.833 31.6699 18.8102 31.0564 17.9588C30.4428 17.1074 29.5768 16.4706 28.5812 16.1388ZM30 24H5V22H30V24Z" fill="#D99B3F"/>
</svg>
